{"glyphs":{"0":{"ha":888,"x_min":0,"x_max":0,"o":"m 308 197 b 304 203 304 199 303 200 b 311 204 306 206 308 207 l 318 203 l 314 194 z m 476 168 b 467 179 469 168 467 172 b 474 193 465 186 467 192 b 485 181 481 193 485 188 b 476 168 486 174 483 169 z m 553 186 b 540 193 546 183 542 188 b 546 208 538 200 539 206 l 550 210 l 558 188 z m 131 511 b 142 501 138 510 143 508 b 129 492 142 494 138 492 b 118 501 122 492 118 494 b 131 511 118 508 124 511 z m 139 381 b 140 388 138 383 138 386 b 147 383 143 388 146 388 l 149 376 l 140 374 z m 638 232 b 624 235 632 228 626 231 b 624 250 619 240 618 246 l 629 254 l 643 235 z m 194 701 l 199 706 b 207 707 201 708 204 710 b 207 699 210 704 208 701 l 203 694 z m 339 800 b 349 788 340 797 343 793 l 339 783 b 338 800 339 790 339 797 z m 410 504 b 360 551 374 507 349 529 b 394 569 367 565 379 569 b 449 564 411 569 431 565 b 410 504 435 546 422 525 z m 443 125 b 76 492 242 125 76 290 b 443 858 76 694 242 858 b 810 492 646 858 810 694 b 443 125 810 290 646 125 z m 443 232 b 183 492 300 232 183 349 b 443 753 183 636 300 753 b 704 492 588 753 704 636 b 443 232 704 349 588 232 z m 510 606 b 469 571 519 606 506 574 b 510 606 483 592 497 606 z m 614 606 b 574 521 657 606 614 521 b 588 563 551 521 582 558 l 588 564 b 582 569 590 567 585 571 b 499 519 558 546 529 531 b 614 606 529 567 572 606 z m 583 785 b 588 778 588 783 589 782 b 579 776 586 775 582 775 l 574 779 l 578 788 z m 767 535 b 756 524 767 528 763 524 b 742 531 749 522 743 524 b 753 542 742 538 746 542 b 767 535 760 543 765 540 z m 474 199 b 458 179 463 197 457 189 b 476 163 460 168 467 161 b 493 182 488 163 493 172 b 474 199 492 192 485 200 z m 543 214 b 532 190 532 210 529 200 b 554 181 536 181 544 176 l 568 185 l 556 218 z m 572 218 l 589 228 l 593 219 l 578 211 l 581 206 l 596 214 l 600 207 l 583 199 l 588 193 l 610 206 l 593 236 l 569 225 z m 129 483 b 149 500 140 483 149 489 b 131 518 149 513 140 518 b 113 501 119 519 113 513 b 129 483 111 490 119 485 z m 114 464 l 114 457 l 150 460 l 149 468 z m 621 256 b 617 231 611 249 611 239 b 642 226 624 222 633 221 l 653 235 l 632 264 z m 654 286 b 654 264 649 281 646 274 l 669 250 l 675 256 l 660 271 b 658 282 656 275 656 279 b 671 281 661 285 665 286 l 686 265 l 690 271 l 676 286 b 654 286 667 294 660 292 z m 142 543 b 125 546 135 544 128 546 b 154 554 129 547 147 553 l 157 564 l 121 571 l 119 564 l 131 561 b 146 560 136 561 142 560 l 146 558 b 117 550 142 558 126 553 l 115 540 l 150 533 l 151 540 z m 140 426 b 143 435 140 432 140 435 b 149 431 146 436 149 435 b 146 422 150 426 149 424 l 147 414 b 156 431 153 417 157 422 b 142 443 153 440 147 444 b 133 428 136 442 133 439 b 129 419 132 422 132 419 b 125 424 126 419 125 421 b 128 431 124 428 126 431 l 126 439 b 119 422 121 436 117 432 b 132 413 121 414 126 411 b 140 426 136 413 140 417 z m 154 379 l 153 383 b 156 392 151 389 153 390 l 157 393 b 164 396 160 393 163 394 l 161 403 b 156 400 160 401 157 401 l 153 400 b 147 392 147 397 147 394 b 138 394 144 394 142 396 b 132 379 132 392 129 386 l 138 364 l 171 376 l 168 385 z m 171 361 l 181 344 l 172 340 l 164 354 l 158 351 l 167 336 l 160 333 l 151 349 l 146 346 l 158 324 l 189 340 l 178 363 z m 172 301 l 189 307 b 201 311 194 308 199 310 b 193 300 200 308 197 304 l 183 286 l 189 279 l 210 311 l 204 318 l 168 307 z m 236 272 l 250 260 l 244 253 l 231 264 l 228 260 l 240 249 l 235 243 l 221 254 l 218 250 l 236 233 l 260 260 l 240 276 z m 285 236 l 279 228 l 265 238 l 261 232 l 276 222 l 272 217 l 257 226 l 253 221 l 275 207 l 294 238 l 272 251 l 268 246 z m 315 210 b 311 218 310 213 310 214 l 313 218 b 315 226 314 222 314 225 l 308 229 b 306 222 308 228 307 225 l 306 221 b 306 211 303 215 304 213 b 297 206 303 211 299 210 b 304 192 294 200 297 194 l 318 185 l 333 218 l 326 221 l 321 208 z m 344 199 l 342 192 l 358 188 l 356 179 l 339 185 l 338 178 l 361 171 l 371 206 l 364 207 l 360 194 z m 433 186 b 432 169 432 179 432 172 b 419 197 431 174 422 190 l 410 199 l 408 163 l 415 163 l 415 172 b 417 189 415 178 417 185 b 429 161 418 185 425 169 l 439 161 l 440 196 l 433 197 z m 679 303 l 689 317 l 713 300 l 718 306 l 689 326 l 674 307 z m 728 360 b 704 353 718 364 708 364 b 707 335 700 346 701 339 l 710 342 b 708 350 708 343 707 346 b 724 353 713 356 719 356 b 731 339 729 349 733 344 b 722 335 729 335 725 333 l 718 328 b 736 336 725 326 732 328 b 728 360 742 346 736 354 z m 167 656 b 182 660 171 653 175 653 b 190 663 186 664 189 664 b 192 656 193 661 193 660 b 183 653 189 653 186 651 l 178 646 b 196 651 185 643 190 644 b 194 669 201 660 200 667 b 178 665 190 672 186 674 b 169 663 174 661 172 661 b 169 668 168 664 168 665 b 176 671 172 672 175 672 l 181 678 b 164 672 176 681 169 679 b 167 656 160 665 161 658 z m 736 401 b 753 396 742 399 749 397 b 721 390 747 396 729 392 l 718 382 l 751 371 l 754 378 l 744 381 b 729 386 739 382 733 385 b 758 390 733 386 750 389 l 763 400 l 728 411 l 726 404 z m 207 690 l 211 696 b 211 713 217 701 217 708 b 194 711 207 718 200 717 l 185 700 l 213 676 l 217 682 z m 403 493 b 268 379 365 436 322 379 b 285 514 193 379 238 488 b 282 519 290 515 286 522 b 274 371 229 489 183 371 b 419 489 336 371 382 429 b 421 492 419 490 421 492 l 418 492 b 403 493 413 492 407 493 z m 767 421 l 768 429 l 733 436 l 732 429 z m 257 729 l 243 717 l 236 724 l 250 735 l 246 740 l 232 729 l 228 735 l 240 746 l 236 751 l 218 735 l 240 707 l 260 724 z m 286 742 b 293 760 293 746 294 753 l 286 756 b 283 747 286 753 288 750 b 268 753 276 743 272 747 b 269 767 265 758 264 764 b 279 767 274 769 276 768 l 285 771 b 267 772 282 775 275 778 b 263 747 257 767 257 756 b 286 742 268 739 276 735 z m 443 867 b 69 492 236 867 69 697 b 443 118 69 286 238 118 b 818 492 649 118 818 285 b 443 867 818 699 650 867 z m 711 492 b 443 760 711 639 590 760 b 176 492 296 760 176 639 b 443 225 176 344 296 225 b 711 492 590 225 711 344 z m 304 793 l 297 789 l 313 757 l 319 760 z m 351 782 l 357 775 l 365 778 l 342 807 l 332 804 l 332 767 l 339 768 l 339 778 z m 401 792 l 385 788 l 379 817 l 372 815 l 378 781 l 403 785 z m 454 786 b 464 790 458 786 463 788 b 465 788 464 789 464 788 l 471 786 l 471 807 l 456 807 l 456 801 l 464 800 b 456 793 464 797 463 793 b 446 806 449 793 446 799 b 456 818 446 811 449 818 b 464 813 461 817 463 814 l 471 811 b 457 824 471 818 465 824 b 439 806 446 824 439 817 b 454 786 438 794 443 788 z m 496 789 l 501 818 l 494 819 l 488 785 l 511 781 l 514 786 z m 492 510 b 564 544 518 518 543 531 b 574 513 556 529 553 513 b 614 613 622 513 669 613 b 474 513 563 613 508 565 b 429 504 458 507 442 504 b 464 563 442 525 453 546 b 510 613 515 564 536 613 b 453 571 490 613 472 596 b 396 578 435 572 414 578 b 353 554 378 578 361 572 b 404 497 340 528 365 503 b 419 496 410 496 414 496 l 424 496 b 492 510 444 496 472 501 z m 657 514 b 494 379 618 435 538 379 b 490 506 444 379 454 444 b 467 499 482 503 474 500 b 485 371 431 436 425 371 b 664 511 547 371 625 432 b 657 514 667 515 660 519 z m 528 775 l 536 772 l 539 785 b 540 786 539 786 540 786 l 558 803 l 550 806 b 538 792 547 801 540 796 b 535 811 538 797 536 804 l 526 813 l 532 789 b 532 788 532 788 532 788 z m 578 771 b 594 775 583 767 590 768 b 588 790 597 781 594 788 l 574 797 l 558 764 l 565 761 l 571 774 z m 624 746 l 615 733 l 621 728 l 642 758 l 635 763 l 626 751 l 615 758 l 622 771 l 617 775 l 596 746 l 603 740 l 611 754 z m 640 726 b 643 708 636 722 636 715 b 661 707 650 703 657 703 b 660 724 665 711 665 715 b 658 733 657 729 656 731 b 664 732 660 735 661 735 b 665 725 667 729 667 726 l 671 719 b 668 736 674 724 675 729 b 651 738 661 742 656 742 b 653 721 649 733 647 729 b 656 713 657 717 657 714 b 647 713 653 710 651 710 b 646 722 644 715 644 718 z m 707 692 l 679 671 l 683 664 l 713 686 z m 713 649 b 711 639 714 642 714 640 b 704 642 708 638 707 638 b 706 650 703 644 703 649 l 701 657 b 699 639 696 653 694 647 b 715 632 704 631 710 629 b 719 649 721 635 722 639 b 719 657 718 654 718 656 b 726 656 722 658 724 658 b 725 647 728 651 726 649 l 729 640 b 731 658 733 643 736 650 b 715 664 726 665 721 667 b 713 649 711 661 710 657 z m 735 589 b 750 594 740 590 747 593 b 728 572 747 590 733 578 l 731 563 l 765 574 l 763 581 l 753 576 b 738 572 747 575 742 574 b 758 593 740 575 753 588 l 756 603 l 722 592 l 724 586 z m 751 550 b 736 531 742 549 735 542 b 757 515 738 519 747 514 b 772 535 767 517 774 525 b 751 550 771 546 763 551 z m 768 490 l 739 490 l 739 483 l 768 482 l 768 472 l 775 472 l 775 501 l 768 501 z "},"1":{"ha":888,"x_min":0,"x_max":0,"o":"m 308 197 b 304 203 304 199 303 200 b 311 204 306 206 308 207 l 318 203 l 314 194 z m 476 168 b 467 179 469 168 467 172 b 474 193 465 186 467 192 b 485 181 481 193 485 188 b 476 168 486 174 483 169 z m 553 186 b 540 193 546 183 542 188 b 546 208 538 200 539 206 l 550 210 l 558 188 z m 131 511 b 142 501 138 510 143 508 b 129 492 142 494 138 492 b 118 501 122 492 118 494 b 131 511 118 508 124 511 z m 139 381 b 140 388 138 383 138 386 b 147 383 143 388 146 388 l 149 376 l 140 374 z m 638 232 b 624 235 632 228 626 231 b 624 250 619 240 618 246 l 629 254 l 643 235 z m 194 701 l 199 706 b 207 707 201 708 204 710 b 207 699 210 704 208 701 l 203 694 z m 339 800 b 349 788 340 797 343 793 l 339 783 b 338 800 339 790 339 797 z m 410 504 b 360 551 374 507 349 529 b 394 569 367 565 379 569 b 449 564 411 569 431 565 b 410 504 435 546 422 525 z m 443 125 b 76 492 242 125 76 290 b 443 858 76 694 242 858 b 810 492 646 858 810 694 b 443 125 810 290 646 125 z m 443 232 b 183 492 300 232 183 349 b 443 753 183 636 300 753 b 704 492 588 753 704 636 b 443 232 704 349 588 232 z m 510 606 b 469 571 519 606 506 574 b 510 606 483 592 497 606 z m 614 606 b 574 521 657 606 614 521 b 588 563 551 521 582 558 l 588 564 b 582 569 590 567 585 571 b 499 519 558 546 529 531 b 614 606 529 567 572 606 z m 583 785 b 588 778 588 783 589 782 b 579 776 586 775 582 775 l 574 779 l 578 788 z m 767 535 b 756 524 767 528 763 524 b 742 531 749 522 743 524 b 753 542 742 538 746 542 b 767 535 760 543 765 540 z m 474 199 b 458 179 463 197 457 189 b 476 163 460 168 467 161 b 493 182 488 163 493 172 b 474 199 492 192 485 200 z m 543 214 b 532 190 532 210 529 200 b 554 181 536 181 544 176 l 568 185 l 556 218 z m 572 218 l 589 228 l 593 219 l 578 211 l 581 206 l 596 214 l 600 207 l 583 199 l 588 193 l 610 206 l 593 236 l 569 225 z m 129 483 b 149 500 140 483 149 489 b 131 518 149 513 140 518 b 113 501 119 519 113 513 b 129 483 111 490 119 485 z m 114 464 l 114 457 l 150 460 l 149 468 z m 621 256 b 617 231 611 249 611 239 b 642 226 624 222 633 221 l 653 235 l 632 264 z m 654 286 b 654 264 649 281 646 274 l 669 250 l 675 256 l 660 271 b 658 282 656 275 656 279 b 671 281 661 285 665 286 l 686 265 l 690 271 l 676 286 b 654 286 667 294 660 292 z m 142 543 b 125 546 135 544 128 546 b 154 554 129 547 147 553 l 157 564 l 121 571 l 119 564 l 131 561 b 146 560 136 561 142 560 l 146 558 b 117 550 142 558 126 553 l 115 540 l 150 533 l 151 540 z m 140 426 b 143 435 140 432 140 435 b 149 431 146 436 149 435 b 146 422 150 426 149 424 l 147 414 b 156 431 153 417 157 422 b 142 443 153 440 147 444 b 133 428 136 442 133 439 b 129 419 132 422 132 419 b 125 424 126 419 125 421 b 128 431 124 428 126 431 l 126 439 b 119 422 121 436 117 432 b 132 413 121 414 126 411 b 140 426 136 413 140 417 z m 154 379 l 153 383 b 156 392 151 389 153 390 l 157 393 b 164 396 160 393 163 394 l 161 403 b 156 400 160 401 157 401 l 153 400 b 147 392 147 397 147 394 b 138 394 144 394 142 396 b 132 379 132 392 129 386 l 138 364 l 171 376 l 168 385 z m 171 361 l 181 344 l 172 340 l 164 354 l 158 351 l 167 336 l 160 333 l 151 349 l 146 346 l 158 324 l 189 340 l 178 363 z m 172 301 l 189 307 b 201 311 194 308 199 310 b 193 300 200 308 197 304 l 183 286 l 189 279 l 210 311 l 204 318 l 168 307 z m 236 272 l 250 260 l 244 253 l 231 264 l 228 260 l 240 249 l 235 243 l 221 254 l 218 250 l 236 233 l 260 260 l 240 276 z m 285 236 l 279 228 l 265 238 l 261 232 l 276 222 l 272 217 l 257 226 l 253 221 l 275 207 l 294 238 l 272 251 l 268 246 z m 315 210 b 311 218 310 213 310 214 l 313 218 b 315 226 314 222 314 225 l 308 229 b 306 222 308 228 307 225 l 306 221 b 306 211 303 215 304 213 b 297 206 303 211 299 210 b 304 192 294 200 297 194 l 318 185 l 333 218 l 326 221 l 321 208 z m 344 199 l 342 192 l 358 188 l 356 179 l 339 185 l 338 178 l 361 171 l 371 206 l 364 207 l 360 194 z m 433 186 b 432 169 432 179 432 172 b 419 197 431 174 422 190 l 410 199 l 408 163 l 415 163 l 415 172 b 417 189 415 178 417 185 b 429 161 418 185 425 169 l 439 161 l 440 196 l 433 197 z m 679 303 l 689 317 l 713 300 l 718 306 l 689 326 l 674 307 z m 728 360 b 704 353 718 364 708 364 b 707 335 700 346 701 339 l 710 342 b 708 350 708 343 707 346 b 724 353 713 356 719 356 b 731 339 729 349 733 344 b 722 335 729 335 725 333 l 718 328 b 736 336 725 326 732 328 b 728 360 742 346 736 354 z m 167 656 b 182 660 171 653 175 653 b 190 663 186 664 189 664 b 192 656 193 661 193 660 b 183 653 189 653 186 651 l 178 646 b 196 651 185 643 190 644 b 194 669 201 660 200 667 b 178 665 190 672 186 674 b 169 663 174 661 172 661 b 169 668 168 664 168 665 b 176 671 172 672 175 672 l 181 678 b 164 672 176 681 169 679 b 167 656 160 665 161 658 z m 736 401 b 753 396 742 399 749 397 b 721 390 747 396 729 392 l 718 382 l 751 371 l 754 378 l 744 381 b 729 386 739 382 733 385 b 758 390 733 386 750 389 l 763 400 l 728 411 l 726 404 z m 207 690 l 211 696 b 211 713 217 701 217 708 b 194 711 207 718 200 717 l 185 700 l 213 676 l 217 682 z m 403 493 b 268 379 365 436 322 379 b 285 514 193 379 238 488 b 282 519 290 515 286 522 b 274 371 229 489 183 371 b 419 489 336 371 382 429 b 421 492 419 490 421 492 l 418 492 b 403 493 413 492 407 493 z m 767 421 l 768 429 l 733 436 l 732 429 z m 257 729 l 243 717 l 236 724 l 250 735 l 246 740 l 232 729 l 228 735 l 240 746 l 236 751 l 218 735 l 240 707 l 260 724 z m 286 742 b 293 760 293 746 294 753 l 286 756 b 283 747 286 753 288 750 b 268 753 276 743 272 747 b 269 767 265 758 264 764 b 279 767 274 769 276 768 l 285 771 b 267 772 282 775 275 778 b 263 747 257 767 257 756 b 286 742 268 739 276 735 z m 443 867 b 69 492 236 867 69 697 b 443 118 69 286 238 118 b 818 492 649 118 818 285 b 443 867 818 699 650 867 z m 711 492 b 443 760 711 639 590 760 b 176 492 296 760 176 639 b 443 225 176 344 296 225 b 711 492 590 225 711 344 z m 304 793 l 297 789 l 313 757 l 319 760 z m 351 782 l 357 775 l 365 778 l 342 807 l 332 804 l 332 767 l 339 768 l 339 778 z m 401 792 l 385 788 l 379 817 l 372 815 l 378 781 l 403 785 z m 454 786 b 464 790 458 786 463 788 b 465 788 464 789 464 788 l 471 786 l 471 807 l 456 807 l 456 801 l 464 800 b 456 793 464 797 463 793 b 446 806 449 793 446 799 b 456 818 446 811 449 818 b 464 813 461 817 463 814 l 471 811 b 457 824 471 818 465 824 b 439 806 446 824 439 817 b 454 786 438 794 443 788 z m 496 789 l 501 818 l 494 819 l 488 785 l 511 781 l 514 786 z m 492 510 b 564 544 518 518 543 531 b 574 513 556 529 553 513 b 614 613 622 513 669 613 b 474 513 563 613 508 565 b 429 504 458 507 442 504 b 464 563 442 525 453 546 b 510 613 515 564 536 613 b 453 571 490 613 472 596 b 396 578 435 572 414 578 b 353 554 378 578 361 572 b 404 497 340 528 365 503 b 419 496 410 496 414 496 l 424 496 b 492 510 444 496 472 501 z m 657 514 b 494 379 618 435 538 379 b 490 506 444 379 454 444 b 467 499 482 503 474 500 b 485 371 431 436 425 371 b 664 511 547 371 625 432 b 657 514 667 515 660 519 z m 528 775 l 536 772 l 539 785 b 540 786 539 786 540 786 l 558 803 l 550 806 b 538 792 547 801 540 796 b 535 811 538 797 536 804 l 526 813 l 532 789 b 532 788 532 788 532 788 z m 578 771 b 594 775 583 767 590 768 b 588 790 597 781 594 788 l 574 797 l 558 764 l 565 761 l 571 774 z m 624 746 l 615 733 l 621 728 l 642 758 l 635 763 l 626 751 l 615 758 l 622 771 l 617 775 l 596 746 l 603 740 l 611 754 z m 640 726 b 643 708 636 722 636 715 b 661 707 650 703 657 703 b 660 724 665 711 665 715 b 658 733 657 729 656 731 b 664 732 660 735 661 735 b 665 725 667 729 667 726 l 671 719 b 668 736 674 724 675 729 b 651 738 661 742 656 742 b 653 721 649 733 647 729 b 656 713 657 717 657 714 b 647 713 653 710 651 710 b 646 722 644 715 644 718 z m 707 692 l 679 671 l 683 664 l 713 686 z m 713 649 b 711 639 714 642 714 640 b 704 642 708 638 707 638 b 706 650 703 644 703 649 l 701 657 b 699 639 696 653 694 647 b 715 632 704 631 710 629 b 719 649 721 635 722 639 b 719 657 718 654 718 656 b 726 656 722 658 724 658 b 725 647 728 651 726 649 l 729 640 b 731 658 733 643 736 650 b 715 664 726 665 721 667 b 713 649 711 661 710 657 z m 735 589 b 750 594 740 590 747 593 b 728 572 747 590 733 578 l 731 563 l 765 574 l 763 581 l 753 576 b 738 572 747 575 742 574 b 758 593 740 575 753 588 l 756 603 l 722 592 l 724 586 z m 751 550 b 736 531 742 549 735 542 b 757 515 738 519 747 514 b 772 535 767 517 774 525 b 751 550 771 546 763 551 z m 768 490 l 739 490 l 739 483 l 768 482 l 768 472 l 775 472 l 775 501 l 768 501 z "},"2":{"ha":888,"x_min":0,"x_max":0,"o":"m 308 197 b 304 203 304 199 303 200 b 311 204 306 206 308 207 l 318 203 l 314 194 z m 476 168 b 467 179 469 168 467 172 b 474 193 465 186 467 192 b 485 181 481 193 485 188 b 476 168 486 174 483 169 z m 553 186 b 540 193 546 183 542 188 b 546 208 538 200 539 206 l 550 210 l 558 188 z m 131 511 b 142 501 138 510 143 508 b 129 492 142 494 138 492 b 118 501 122 492 118 494 b 131 511 118 508 124 511 z m 139 381 b 140 388 138 383 138 386 b 147 383 143 388 146 388 l 149 376 l 140 374 z m 638 232 b 624 235 632 228 626 231 b 624 250 619 240 618 246 l 629 254 l 643 235 z m 194 701 l 199 706 b 207 707 201 708 204 710 b 207 699 210 704 208 701 l 203 694 z m 339 800 b 349 788 340 797 343 793 l 339 783 b 338 800 339 790 339 797 z m 410 504 b 360 551 374 507 349 529 b 394 569 367 565 379 569 b 449 564 411 569 431 565 b 410 504 435 546 422 525 z m 443 125 b 76 492 242 125 76 290 b 443 858 76 694 242 858 b 810 492 646 858 810 694 b 443 125 810 290 646 125 z m 443 232 b 183 492 300 232 183 349 b 443 753 183 636 300 753 b 704 492 588 753 704 636 b 443 232 704 349 588 232 z m 510 606 b 469 571 519 606 506 574 b 510 606 483 592 497 606 z m 614 606 b 574 521 657 606 614 521 b 588 563 551 521 582 558 l 588 564 b 582 569 590 567 585 571 b 499 519 558 546 529 531 b 614 606 529 567 572 606 z m 583 785 b 588 778 588 783 589 782 b 579 776 586 775 582 775 l 574 779 l 578 788 z m 767 535 b 756 524 767 528 763 524 b 742 531 749 522 743 524 b 753 542 742 538 746 542 b 767 535 760 543 765 540 z m 474 199 b 458 179 463 197 457 189 b 476 163 460 168 467 161 b 493 182 488 163 493 172 b 474 199 492 192 485 200 z m 543 214 b 532 190 532 210 529 200 b 554 181 536 181 544 176 l 568 185 l 556 218 z m 572 218 l 589 228 l 593 219 l 578 211 l 581 206 l 596 214 l 600 207 l 583 199 l 588 193 l 610 206 l 593 236 l 569 225 z m 129 483 b 149 500 140 483 149 489 b 131 518 149 513 140 518 b 113 501 119 519 113 513 b 129 483 111 490 119 485 z m 114 464 l 114 457 l 150 460 l 149 468 z m 621 256 b 617 231 611 249 611 239 b 642 226 624 222 633 221 l 653 235 l 632 264 z m 654 286 b 654 264 649 281 646 274 l 669 250 l 675 256 l 660 271 b 658 282 656 275 656 279 b 671 281 661 285 665 286 l 686 265 l 690 271 l 676 286 b 654 286 667 294 660 292 z m 142 543 b 125 546 135 544 128 546 b 154 554 129 547 147 553 l 157 564 l 121 571 l 119 564 l 131 561 b 146 560 136 561 142 560 l 146 558 b 117 550 142 558 126 553 l 115 540 l 150 533 l 151 540 z m 140 426 b 143 435 140 432 140 435 b 149 431 146 436 149 435 b 146 422 150 426 149 424 l 147 414 b 156 431 153 417 157 422 b 142 443 153 440 147 444 b 133 428 136 442 133 439 b 129 419 132 422 132 419 b 125 424 126 419 125 421 b 128 431 124 428 126 431 l 126 439 b 119 422 121 436 117 432 b 132 413 121 414 126 411 b 140 426 136 413 140 417 z m 154 379 l 153 383 b 156 392 151 389 153 390 l 157 393 b 164 396 160 393 163 394 l 161 403 b 156 400 160 401 157 401 l 153 400 b 147 392 147 397 147 394 b 138 394 144 394 142 396 b 132 379 132 392 129 386 l 138 364 l 171 376 l 168 385 z m 171 361 l 181 344 l 172 340 l 164 354 l 158 351 l 167 336 l 160 333 l 151 349 l 146 346 l 158 324 l 189 340 l 178 363 z m 172 301 l 189 307 b 201 311 194 308 199 310 b 193 300 200 308 197 304 l 183 286 l 189 279 l 210 311 l 204 318 l 168 307 z m 236 272 l 250 260 l 244 253 l 231 264 l 228 260 l 240 249 l 235 243 l 221 254 l 218 250 l 236 233 l 260 260 l 240 276 z m 285 236 l 279 228 l 265 238 l 261 232 l 276 222 l 272 217 l 257 226 l 253 221 l 275 207 l 294 238 l 272 251 l 268 246 z m 315 210 b 311 218 310 213 310 214 l 313 218 b 315 226 314 222 314 225 l 308 229 b 306 222 308 228 307 225 l 306 221 b 306 211 303 215 304 213 b 297 206 303 211 299 210 b 304 192 294 200 297 194 l 318 185 l 333 218 l 326 221 l 321 208 z m 344 199 l 342 192 l 358 188 l 356 179 l 339 185 l 338 178 l 361 171 l 371 206 l 364 207 l 360 194 z m 433 186 b 432 169 432 179 432 172 b 419 197 431 174 422 190 l 410 199 l 408 163 l 415 163 l 415 172 b 417 189 415 178 417 185 b 429 161 418 185 425 169 l 439 161 l 440 196 l 433 197 z m 679 303 l 689 317 l 713 300 l 718 306 l 689 326 l 674 307 z m 728 360 b 704 353 718 364 708 364 b 707 335 700 346 701 339 l 710 342 b 708 350 708 343 707 346 b 724 353 713 356 719 356 b 731 339 729 349 733 344 b 722 335 729 335 725 333 l 718 328 b 736 336 725 326 732 328 b 728 360 742 346 736 354 z m 167 656 b 182 660 171 653 175 653 b 190 663 186 664 189 664 b 192 656 193 661 193 660 b 183 653 189 653 186 651 l 178 646 b 196 651 185 643 190 644 b 194 669 201 660 200 667 b 178 665 190 672 186 674 b 169 663 174 661 172 661 b 169 668 168 664 168 665 b 176 671 172 672 175 672 l 181 678 b 164 672 176 681 169 679 b 167 656 160 665 161 658 z m 736 401 b 753 396 742 399 749 397 b 721 390 747 396 729 392 l 718 382 l 751 371 l 754 378 l 744 381 b 729 386 739 382 733 385 b 758 390 733 386 750 389 l 763 400 l 728 411 l 726 404 z m 207 690 l 211 696 b 211 713 217 701 217 708 b 194 711 207 718 200 717 l 185 700 l 213 676 l 217 682 z m 403 493 b 268 379 365 436 322 379 b 285 514 193 379 238 488 b 282 519 290 515 286 522 b 274 371 229 489 183 371 b 419 489 336 371 382 429 b 421 492 419 490 421 492 l 418 492 b 403 493 413 492 407 493 z m 767 421 l 768 429 l 733 436 l 732 429 z m 257 729 l 243 717 l 236 724 l 250 735 l 246 740 l 232 729 l 228 735 l 240 746 l 236 751 l 218 735 l 240 707 l 260 724 z m 286 742 b 293 760 293 746 294 753 l 286 756 b 283 747 286 753 288 750 b 268 753 276 743 272 747 b 269 767 265 758 264 764 b 279 767 274 769 276 768 l 285 771 b 267 772 282 775 275 778 b 263 747 257 767 257 756 b 286 742 268 739 276 735 z m 443 867 b 69 492 236 867 69 697 b 443 118 69 286 238 118 b 818 492 649 118 818 285 b 443 867 818 699 650 867 z m 711 492 b 443 760 711 639 590 760 b 176 492 296 760 176 639 b 443 225 176 344 296 225 b 711 492 590 225 711 344 z m 304 793 l 297 789 l 313 757 l 319 760 z m 351 782 l 357 775 l 365 778 l 342 807 l 332 804 l 332 767 l 339 768 l 339 778 z m 401 792 l 385 788 l 379 817 l 372 815 l 378 781 l 403 785 z m 454 786 b 464 790 458 786 463 788 b 465 788 464 789 464 788 l 471 786 l 471 807 l 456 807 l 456 801 l 464 800 b 456 793 464 797 463 793 b 446 806 449 793 446 799 b 456 818 446 811 449 818 b 464 813 461 817 463 814 l 471 811 b 457 824 471 818 465 824 b 439 806 446 824 439 817 b 454 786 438 794 443 788 z m 496 789 l 501 818 l 494 819 l 488 785 l 511 781 l 514 786 z m 492 510 b 564 544 518 518 543 531 b 574 513 556 529 553 513 b 614 613 622 513 669 613 b 474 513 563 613 508 565 b 429 504 458 507 442 504 b 464 563 442 525 453 546 b 510 613 515 564 536 613 b 453 571 490 613 472 596 b 396 578 435 572 414 578 b 353 554 378 578 361 572 b 404 497 340 528 365 503 b 419 496 410 496 414 496 l 424 496 b 492 510 444 496 472 501 z m 657 514 b 494 379 618 435 538 379 b 490 506 444 379 454 444 b 467 499 482 503 474 500 b 485 371 431 436 425 371 b 664 511 547 371 625 432 b 657 514 667 515 660 519 z m 528 775 l 536 772 l 539 785 b 540 786 539 786 540 786 l 558 803 l 550 806 b 538 792 547 801 540 796 b 535 811 538 797 536 804 l 526 813 l 532 789 b 532 788 532 788 532 788 z m 578 771 b 594 775 583 767 590 768 b 588 790 597 781 594 788 l 574 797 l 558 764 l 565 761 l 571 774 z m 624 746 l 615 733 l 621 728 l 642 758 l 635 763 l 626 751 l 615 758 l 622 771 l 617 775 l 596 746 l 603 740 l 611 754 z m 640 726 b 643 708 636 722 636 715 b 661 707 650 703 657 703 b 660 724 665 711 665 715 b 658 733 657 729 656 731 b 664 732 660 735 661 735 b 665 725 667 729 667 726 l 671 719 b 668 736 674 724 675 729 b 651 738 661 742 656 742 b 653 721 649 733 647 729 b 656 713 657 717 657 714 b 647 713 653 710 651 710 b 646 722 644 715 644 718 z m 707 692 l 679 671 l 683 664 l 713 686 z m 713 649 b 711 639 714 642 714 640 b 704 642 708 638 707 638 b 706 650 703 644 703 649 l 701 657 b 699 639 696 653 694 647 b 715 632 704 631 710 629 b 719 649 721 635 722 639 b 719 657 718 654 718 656 b 726 656 722 658 724 658 b 725 647 728 651 726 649 l 729 640 b 731 658 733 643 736 650 b 715 664 726 665 721 667 b 713 649 711 661 710 657 z m 735 589 b 750 594 740 590 747 593 b 728 572 747 590 733 578 l 731 563 l 765 574 l 763 581 l 753 576 b 738 572 747 575 742 574 b 758 593 740 575 753 588 l 756 603 l 722 592 l 724 586 z m 751 550 b 736 531 742 549 735 542 b 757 515 738 519 747 514 b 772 535 767 517 774 525 b 751 550 771 546 763 551 z m 768 490 l 739 490 l 739 483 l 768 482 l 768 472 l 775 472 l 775 501 l 768 501 z "},"3":{"ha":888,"x_min":0,"x_max":0,"o":"m 308 197 b 304 203 304 199 303 200 b 311 204 306 206 308 207 l 318 203 l 314 194 z m 476 168 b 467 179 469 168 467 172 b 474 193 465 186 467 192 b 485 181 481 193 485 188 b 476 168 486 174 483 169 z m 553 186 b 540 193 546 183 542 188 b 546 208 538 200 539 206 l 550 210 l 558 188 z m 131 511 b 142 501 138 510 143 508 b 129 492 142 494 138 492 b 118 501 122 492 118 494 b 131 511 118 508 124 511 z m 139 381 b 140 388 138 383 138 386 b 147 383 143 388 146 388 l 149 376 l 140 374 z m 638 232 b 624 235 632 228 626 231 b 624 250 619 240 618 246 l 629 254 l 643 235 z m 194 701 l 199 706 b 207 707 201 708 204 710 b 207 699 210 704 208 701 l 203 694 z m 339 800 b 349 788 340 797 343 793 l 339 783 b 338 800 339 790 339 797 z m 410 504 b 360 551 374 507 349 529 b 394 569 367 565 379 569 b 449 564 411 569 431 565 b 410 504 435 546 422 525 z m 443 125 b 76 492 242 125 76 290 b 443 858 76 694 242 858 b 810 492 646 858 810 694 b 443 125 810 290 646 125 z m 443 232 b 183 492 300 232 183 349 b 443 753 183 636 300 753 b 704 492 588 753 704 636 b 443 232 704 349 588 232 z m 510 606 b 469 571 519 606 506 574 b 510 606 483 592 497 606 z m 614 606 b 574 521 657 606 614 521 b 588 563 551 521 582 558 l 588 564 b 582 569 590 567 585 571 b 499 519 558 546 529 531 b 614 606 529 567 572 606 z m 583 785 b 588 778 588 783 589 782 b 579 776 586 775 582 775 l 574 779 l 578 788 z m 767 535 b 756 524 767 528 763 524 b 742 531 749 522 743 524 b 753 542 742 538 746 542 b 767 535 760 543 765 540 z m 474 199 b 458 179 463 197 457 189 b 476 163 460 168 467 161 b 493 182 488 163 493 172 b 474 199 492 192 485 200 z m 543 214 b 532 190 532 210 529 200 b 554 181 536 181 544 176 l 568 185 l 556 218 z m 572 218 l 589 228 l 593 219 l 578 211 l 581 206 l 596 214 l 600 207 l 583 199 l 588 193 l 610 206 l 593 236 l 569 225 z m 129 483 b 149 500 140 483 149 489 b 131 518 149 513 140 518 b 113 501 119 519 113 513 b 129 483 111 490 119 485 z m 114 464 l 114 457 l 150 460 l 149 468 z m 621 256 b 617 231 611 249 611 239 b 642 226 624 222 633 221 l 653 235 l 632 264 z m 654 286 b 654 264 649 281 646 274 l 669 250 l 675 256 l 660 271 b 658 282 656 275 656 279 b 671 281 661 285 665 286 l 686 265 l 690 271 l 676 286 b 654 286 667 294 660 292 z m 142 543 b 125 546 135 544 128 546 b 154 554 129 547 147 553 l 157 564 l 121 571 l 119 564 l 131 561 b 146 560 136 561 142 560 l 146 558 b 117 550 142 558 126 553 l 115 540 l 150 533 l 151 540 z m 140 426 b 143 435 140 432 140 435 b 149 431 146 436 149 435 b 146 422 150 426 149 424 l 147 414 b 156 431 153 417 157 422 b 142 443 153 440 147 444 b 133 428 136 442 133 439 b 129 419 132 422 132 419 b 125 424 126 419 125 421 b 128 431 124 428 126 431 l 126 439 b 119 422 121 436 117 432 b 132 413 121 414 126 411 b 140 426 136 413 140 417 z m 154 379 l 153 383 b 156 392 151 389 153 390 l 157 393 b 164 396 160 393 163 394 l 161 403 b 156 400 160 401 157 401 l 153 400 b 147 392 147 397 147 394 b 138 394 144 394 142 396 b 132 379 132 392 129 386 l 138 364 l 171 376 l 168 385 z m 171 361 l 181 344 l 172 340 l 164 354 l 158 351 l 167 336 l 160 333 l 151 349 l 146 346 l 158 324 l 189 340 l 178 363 z m 172 301 l 189 307 b 201 311 194 308 199 310 b 193 300 200 308 197 304 l 183 286 l 189 279 l 210 311 l 204 318 l 168 307 z m 236 272 l 250 260 l 244 253 l 231 264 l 228 260 l 240 249 l 235 243 l 221 254 l 218 250 l 236 233 l 260 260 l 240 276 z m 285 236 l 279 228 l 265 238 l 261 232 l 276 222 l 272 217 l 257 226 l 253 221 l 275 207 l 294 238 l 272 251 l 268 246 z m 315 210 b 311 218 310 213 310 214 l 313 218 b 315 226 314 222 314 225 l 308 229 b 306 222 308 228 307 225 l 306 221 b 306 211 303 215 304 213 b 297 206 303 211 299 210 b 304 192 294 200 297 194 l 318 185 l 333 218 l 326 221 l 321 208 z m 344 199 l 342 192 l 358 188 l 356 179 l 339 185 l 338 178 l 361 171 l 371 206 l 364 207 l 360 194 z m 433 186 b 432 169 432 179 432 172 b 419 197 431 174 422 190 l 410 199 l 408 163 l 415 163 l 415 172 b 417 189 415 178 417 185 b 429 161 418 185 425 169 l 439 161 l 440 196 l 433 197 z m 679 303 l 689 317 l 713 300 l 718 306 l 689 326 l 674 307 z m 728 360 b 704 353 718 364 708 364 b 707 335 700 346 701 339 l 710 342 b 708 350 708 343 707 346 b 724 353 713 356 719 356 b 731 339 729 349 733 344 b 722 335 729 335 725 333 l 718 328 b 736 336 725 326 732 328 b 728 360 742 346 736 354 z m 167 656 b 182 660 171 653 175 653 b 190 663 186 664 189 664 b 192 656 193 661 193 660 b 183 653 189 653 186 651 l 178 646 b 196 651 185 643 190 644 b 194 669 201 660 200 667 b 178 665 190 672 186 674 b 169 663 174 661 172 661 b 169 668 168 664 168 665 b 176 671 172 672 175 672 l 181 678 b 164 672 176 681 169 679 b 167 656 160 665 161 658 z m 736 401 b 753 396 742 399 749 397 b 721 390 747 396 729 392 l 718 382 l 751 371 l 754 378 l 744 381 b 729 386 739 382 733 385 b 758 390 733 386 750 389 l 763 400 l 728 411 l 726 404 z m 207 690 l 211 696 b 211 713 217 701 217 708 b 194 711 207 718 200 717 l 185 700 l 213 676 l 217 682 z m 403 493 b 268 379 365 436 322 379 b 285 514 193 379 238 488 b 282 519 290 515 286 522 b 274 371 229 489 183 371 b 419 489 336 371 382 429 b 421 492 419 490 421 492 l 418 492 b 403 493 413 492 407 493 z m 767 421 l 768 429 l 733 436 l 732 429 z m 257 729 l 243 717 l 236 724 l 250 735 l 246 740 l 232 729 l 228 735 l 240 746 l 236 751 l 218 735 l 240 707 l 260 724 z m 286 742 b 293 760 293 746 294 753 l 286 756 b 283 747 286 753 288 750 b 268 753 276 743 272 747 b 269 767 265 758 264 764 b 279 767 274 769 276 768 l 285 771 b 267 772 282 775 275 778 b 263 747 257 767 257 756 b 286 742 268 739 276 735 z m 443 867 b 69 492 236 867 69 697 b 443 118 69 286 238 118 b 818 492 649 118 818 285 b 443 867 818 699 650 867 z m 711 492 b 443 760 711 639 590 760 b 176 492 296 760 176 639 b 443 225 176 344 296 225 b 711 492 590 225 711 344 z m 304 793 l 297 789 l 313 757 l 319 760 z m 351 782 l 357 775 l 365 778 l 342 807 l 332 804 l 332 767 l 339 768 l 339 778 z m 401 792 l 385 788 l 379 817 l 372 815 l 378 781 l 403 785 z m 454 786 b 464 790 458 786 463 788 b 465 788 464 789 464 788 l 471 786 l 471 807 l 456 807 l 456 801 l 464 800 b 456 793 464 797 463 793 b 446 806 449 793 446 799 b 456 818 446 811 449 818 b 464 813 461 817 463 814 l 471 811 b 457 824 471 818 465 824 b 439 806 446 824 439 817 b 454 786 438 794 443 788 z m 496 789 l 501 818 l 494 819 l 488 785 l 511 781 l 514 786 z m 492 510 b 564 544 518 518 543 531 b 574 513 556 529 553 513 b 614 613 622 513 669 613 b 474 513 563 613 508 565 b 429 504 458 507 442 504 b 464 563 442 525 453 546 b 510 613 515 564 536 613 b 453 571 490 613 472 596 b 396 578 435 572 414 578 b 353 554 378 578 361 572 b 404 497 340 528 365 503 b 419 496 410 496 414 496 l 424 496 b 492 510 444 496 472 501 z m 657 514 b 494 379 618 435 538 379 b 490 506 444 379 454 444 b 467 499 482 503 474 500 b 485 371 431 436 425 371 b 664 511 547 371 625 432 b 657 514 667 515 660 519 z m 528 775 l 536 772 l 539 785 b 540 786 539 786 540 786 l 558 803 l 550 806 b 538 792 547 801 540 796 b 535 811 538 797 536 804 l 526 813 l 532 789 b 532 788 532 788 532 788 z m 578 771 b 594 775 583 767 590 768 b 588 790 597 781 594 788 l 574 797 l 558 764 l 565 761 l 571 774 z m 624 746 l 615 733 l 621 728 l 642 758 l 635 763 l 626 751 l 615 758 l 622 771 l 617 775 l 596 746 l 603 740 l 611 754 z m 640 726 b 643 708 636 722 636 715 b 661 707 650 703 657 703 b 660 724 665 711 665 715 b 658 733 657 729 656 731 b 664 732 660 735 661 735 b 665 725 667 729 667 726 l 671 719 b 668 736 674 724 675 729 b 651 738 661 742 656 742 b 653 721 649 733 647 729 b 656 713 657 717 657 714 b 647 713 653 710 651 710 b 646 722 644 715 644 718 z m 707 692 l 679 671 l 683 664 l 713 686 z m 713 649 b 711 639 714 642 714 640 b 704 642 708 638 707 638 b 706 650 703 644 703 649 l 701 657 b 699 639 696 653 694 647 b 715 632 704 631 710 629 b 719 649 721 635 722 639 b 719 657 718 654 718 656 b 726 656 722 658 724 658 b 725 647 728 651 726 649 l 729 640 b 731 658 733 643 736 650 b 715 664 726 665 721 667 b 713 649 711 661 710 657 z m 735 589 b 750 594 740 590 747 593 b 728 572 747 590 733 578 l 731 563 l 765 574 l 763 581 l 753 576 b 738 572 747 575 742 574 b 758 593 740 575 753 588 l 756 603 l 722 592 l 724 586 z m 751 550 b 736 531 742 549 735 542 b 757 515 738 519 747 514 b 772 535 767 517 774 525 b 751 550 771 546 763 551 z m 768 490 l 739 490 l 739 483 l 768 482 l 768 472 l 775 472 l 775 501 l 768 501 z "},"4":{"ha":794,"x_min":0,"x_max":0,"o":"m 239 79 b 235 85 235 81 233 82 b 242 86 236 88 239 89 l 249 85 l 244 76 z m 407 50 b 397 61 400 50 397 54 b 404 75 396 68 397 74 b 415 63 411 75 415 69 b 407 50 417 56 414 51 z m 483 68 b 471 75 476 65 472 69 b 476 90 468 82 469 88 l 481 92 l 489 69 z m 61 393 b 72 383 68 392 74 390 b 60 374 72 376 67 374 b 49 383 53 374 49 376 b 61 393 49 390 54 393 z m 68 263 b 71 269 68 265 68 268 b 78 265 74 269 76 269 l 79 258 l 71 256 z m 568 114 b 554 117 563 110 557 113 b 554 132 550 122 549 128 l 560 136 l 574 117 z m 125 583 l 129 588 b 138 589 132 590 135 592 b 138 581 140 586 139 583 l 133 576 z m 269 682 b 279 669 271 679 274 675 l 269 665 b 268 682 269 672 269 679 z m 339 386 b 290 433 304 389 279 411 b 325 451 297 447 310 451 b 379 446 342 451 361 447 b 339 386 365 428 353 407 z m 374 7 b 7 374 172 7 7 172 b 374 740 7 576 172 740 b 740 374 576 740 740 576 b 374 7 740 172 576 7 z m 374 114 b 114 374 231 114 114 231 b 374 635 114 518 231 635 b 635 374 518 635 635 518 b 374 114 635 231 518 114 z m 440 488 b 400 453 450 488 436 456 b 440 488 414 474 428 488 z m 544 488 b 504 403 588 488 544 403 b 518 444 482 403 513 440 l 518 446 b 513 451 521 449 515 453 b 429 401 489 428 460 413 b 544 488 460 449 503 488 z m 514 667 b 518 660 518 665 519 664 b 510 658 517 657 513 657 l 504 661 l 508 669 z m 697 417 b 686 406 697 410 693 406 b 672 413 679 404 674 406 b 683 424 672 419 676 424 b 697 417 690 425 696 422 z m 404 81 b 389 60 393 79 388 71 b 407 44 390 50 397 43 b 424 64 418 44 424 54 b 404 81 422 74 415 82 z m 474 96 b 463 72 463 92 460 82 b 485 63 467 63 475 58 l 499 67 l 486 100 z m 503 100 l 519 110 l 524 101 l 508 93 l 511 88 l 526 96 l 531 89 l 514 81 l 518 75 l 540 88 l 524 118 l 500 107 z m 60 365 b 79 382 71 365 79 371 b 61 400 79 394 71 400 b 43 383 50 401 43 394 b 60 365 42 372 50 367 z m 44 346 l 44 338 l 81 342 l 79 349 z m 551 138 b 547 113 542 131 542 121 b 572 108 554 104 564 103 l 583 117 l 563 146 z m 585 168 b 585 146 579 163 576 156 l 600 132 l 606 138 l 590 153 b 589 164 586 157 586 161 b 601 163 592 167 596 168 l 617 147 l 621 153 l 607 168 b 585 168 597 176 590 174 z m 72 425 b 56 428 65 426 58 428 b 85 436 60 429 78 435 l 88 446 l 51 453 l 50 446 l 61 443 b 76 442 67 443 72 442 l 76 440 b 47 432 72 440 57 435 l 46 422 l 81 415 l 82 422 z m 71 308 b 74 317 71 314 71 317 b 79 313 76 318 79 317 b 76 304 81 308 79 306 l 78 296 b 86 313 83 299 88 304 b 72 325 83 322 78 326 b 64 310 67 324 64 321 b 60 301 63 304 63 301 b 56 306 57 301 56 303 b 58 313 54 310 57 313 l 57 321 b 50 304 51 318 47 314 b 63 294 51 296 57 293 b 71 308 67 294 71 299 z m 85 261 l 83 265 b 86 274 82 271 83 272 l 88 275 b 94 278 90 275 93 276 l 92 285 b 86 282 90 283 88 283 l 83 281 b 78 274 78 279 78 276 b 68 276 75 276 72 278 b 63 261 63 274 60 268 l 68 246 l 101 258 l 99 267 z m 101 243 l 111 226 l 103 222 l 94 236 l 89 233 l 97 218 l 90 215 l 82 231 l 76 228 l 89 206 l 119 222 l 108 244 z m 103 183 l 119 189 b 132 193 125 190 129 192 b 124 182 131 190 128 186 l 114 168 l 119 161 l 140 193 l 135 200 l 99 189 z m 167 154 l 181 142 l 175 135 l 161 146 l 157 142 l 171 131 l 165 125 l 151 136 l 149 132 l 167 115 l 190 142 l 171 158 z m 215 118 l 210 110 l 196 119 l 192 114 l 207 104 l 203 99 l 188 108 l 183 103 l 206 89 l 225 119 l 203 133 l 199 128 z m 246 92 b 242 100 240 94 240 96 l 243 100 b 246 108 244 104 244 106 l 239 111 b 236 104 239 110 238 107 l 236 103 b 236 93 233 97 235 94 b 228 88 233 93 229 92 b 235 74 225 82 228 76 l 249 67 l 264 100 l 257 103 l 251 90 z m 275 81 l 272 74 l 289 69 l 286 61 l 269 67 l 268 60 l 292 53 l 301 88 l 294 89 l 290 75 z m 364 68 b 363 51 363 61 363 54 b 350 79 361 56 353 72 l 340 81 l 339 44 l 346 44 l 346 54 b 347 71 346 60 347 67 b 360 43 349 67 356 51 l 369 43 l 371 78 l 364 79 z m 610 185 l 619 199 l 643 182 l 649 188 l 619 208 l 604 189 z m 658 242 b 635 235 649 246 639 246 b 638 217 631 228 632 221 l 640 224 b 639 232 639 225 638 228 b 654 235 643 238 649 238 b 661 221 660 231 664 226 b 653 217 658 217 656 215 l 649 210 b 667 218 656 208 663 210 b 658 242 672 228 667 236 z m 97 538 b 113 542 101 535 106 535 b 121 544 117 546 119 546 b 122 538 124 543 124 542 b 113 535 119 535 117 533 l 108 528 b 126 533 115 525 121 526 b 125 551 132 542 131 549 b 108 547 121 554 117 556 b 100 544 104 543 103 543 b 100 550 99 546 99 547 b 107 553 103 554 106 554 l 111 560 b 94 554 107 563 100 561 b 97 538 90 547 92 540 z m 667 283 b 683 278 672 281 679 279 b 651 272 678 278 660 274 l 649 264 l 682 253 l 685 260 l 675 263 b 660 268 669 264 664 267 b 689 272 664 268 681 271 l 693 282 l 658 293 l 657 286 z m 138 572 l 142 578 b 142 594 147 583 147 590 b 125 593 138 600 131 599 l 115 582 l 143 558 l 147 564 z m 333 375 b 199 261 296 318 253 261 b 215 396 124 261 168 369 b 213 401 221 397 217 404 b 204 253 160 371 114 253 b 350 371 267 253 313 311 l 351 374 l 349 374 b 333 375 343 374 338 375 z m 697 303 l 699 311 l 664 318 l 663 311 z m 188 611 l 174 599 l 167 606 l 181 617 l 176 622 l 163 611 l 158 617 l 171 628 l 167 633 l 149 617 l 171 589 l 190 606 z m 217 624 b 224 642 224 628 225 635 l 217 638 b 214 629 217 635 218 632 b 199 635 207 625 203 629 b 200 649 196 640 194 646 b 210 649 204 651 207 650 l 215 653 b 197 654 213 657 206 660 b 193 629 188 649 188 638 b 217 624 199 621 207 617 z m 374 747 b 0 374 167 747 0 581 b 374 0 0 168 168 0 b 747 374 581 0 747 167 b 374 747 747 582 582 747 z m 642 374 b 374 642 642 521 521 642 b 107 374 226 642 107 521 b 374 107 107 226 226 107 b 642 374 521 107 642 226 z m 235 675 l 228 671 l 243 639 l 250 642 z m 282 664 l 288 657 l 296 660 l 272 689 l 263 686 l 263 649 l 269 650 l 269 660 z m 332 674 l 315 669 l 310 699 l 303 697 l 308 663 l 333 667 z m 385 668 b 394 672 389 668 393 669 b 396 669 394 671 394 669 l 401 668 l 401 689 l 386 689 l 386 683 l 394 682 b 386 675 394 679 393 675 b 376 688 379 675 376 681 b 386 700 376 693 379 700 b 394 694 392 699 393 696 l 401 693 b 388 706 401 700 396 706 b 369 688 376 706 369 699 b 385 668 368 676 374 669 z m 426 671 l 432 700 l 425 701 l 418 667 l 442 661 l 444 668 z m 422 392 b 494 426 449 400 474 413 b 504 394 486 411 483 394 b 544 494 553 394 600 494 b 404 394 493 494 439 447 b 360 386 389 389 372 386 b 394 444 372 407 383 428 b 440 494 446 446 467 494 b 383 453 421 494 403 478 b 326 460 365 454 344 460 b 283 436 308 460 292 454 b 335 379 271 410 296 385 b 350 378 339 378 344 378 l 354 378 b 422 392 375 378 403 383 z m 588 396 b 425 261 549 317 468 261 b 421 388 375 261 385 326 b 397 381 413 385 404 382 b 415 253 361 318 356 253 b 594 393 478 253 556 314 b 588 396 597 397 590 401 z m 458 657 l 467 654 l 469 667 b 471 668 469 668 471 668 l 489 685 l 481 688 b 468 674 476 683 471 678 b 465 693 468 678 467 686 l 457 694 l 463 671 b 463 669 463 669 463 669 z m 508 653 b 525 657 514 649 521 650 b 518 672 528 663 525 669 l 504 679 l 489 646 l 496 643 l 501 656 z m 554 628 l 546 615 l 551 610 l 572 640 l 565 644 l 557 633 l 546 640 l 553 653 l 547 657 l 526 628 l 533 622 l 542 636 z m 571 608 b 574 590 567 604 567 597 b 592 589 581 585 588 585 b 590 606 596 593 596 597 b 588 614 588 611 586 613 b 594 614 590 617 592 617 b 596 607 597 611 597 608 l 601 601 b 599 618 604 606 606 611 b 582 619 592 624 586 624 b 583 603 579 615 578 611 b 586 594 588 599 588 596 b 578 594 583 592 582 592 b 576 604 575 597 575 600 z m 638 574 l 610 553 l 614 546 l 643 568 z m 643 531 b 642 521 644 524 644 522 b 635 524 639 519 638 519 b 636 532 633 526 633 531 l 632 539 b 629 521 626 535 625 529 b 646 514 635 513 640 511 b 650 531 651 517 653 521 b 650 539 649 536 649 538 b 657 538 653 540 654 540 b 656 529 658 533 657 531 l 660 522 b 661 540 664 525 667 532 b 646 546 657 547 651 549 b 643 531 642 543 640 539 z m 665 471 b 681 476 671 472 678 475 b 658 454 678 472 664 460 l 661 444 l 696 456 l 693 463 l 683 458 b 668 454 678 457 672 456 b 689 475 671 457 683 469 l 686 485 l 653 474 l 654 468 z m 682 432 b 667 413 672 431 665 424 b 688 397 668 401 678 396 b 703 417 697 399 704 407 b 682 432 701 428 693 433 z m 699 372 l 669 372 l 669 365 l 699 364 l 699 354 l 704 354 l 706 383 l 699 383 z "},"5":{"ha":794,"x_min":0,"x_max":0,"o":"m 239 79 b 235 85 235 81 233 82 b 242 86 236 88 239 89 l 249 85 l 244 76 z m 407 50 b 397 61 400 50 397 54 b 404 75 396 68 397 74 b 415 63 411 75 415 69 b 407 50 417 56 414 51 z m 483 68 b 471 75 476 65 472 69 b 476 90 468 82 469 88 l 481 92 l 489 69 z m 61 393 b 72 383 68 392 74 390 b 60 374 72 376 67 374 b 49 383 53 374 49 376 b 61 393 49 390 54 393 z m 68 263 b 71 269 68 265 68 268 b 78 265 74 269 76 269 l 79 258 l 71 256 z m 568 114 b 554 117 563 110 557 113 b 554 132 550 122 549 128 l 560 136 l 574 117 z m 125 583 l 129 588 b 138 589 132 590 135 592 b 138 581 140 586 139 583 l 133 576 z m 269 682 b 279 669 271 679 274 675 l 269 665 b 268 682 269 672 269 679 z m 339 386 b 290 433 304 389 279 411 b 325 451 297 447 310 451 b 379 446 342 451 361 447 b 339 386 365 428 353 407 z m 374 7 b 7 374 172 7 7 172 b 374 740 7 576 172 740 b 740 374 576 740 740 576 b 374 7 740 172 576 7 z m 374 114 b 114 374 231 114 114 231 b 374 635 114 518 231 635 b 635 374 518 635 635 518 b 374 114 635 231 518 114 z m 440 488 b 400 453 450 488 436 456 b 440 488 414 474 428 488 z m 544 488 b 504 403 588 488 544 403 b 518 444 482 403 513 440 l 518 446 b 513 451 521 449 515 453 b 429 401 489 428 460 413 b 544 488 460 449 503 488 z m 514 667 b 518 660 518 665 519 664 b 510 658 517 657 513 657 l 504 661 l 508 669 z m 697 417 b 686 406 697 410 693 406 b 672 413 679 404 674 406 b 683 424 672 419 676 424 b 697 417 690 425 696 422 z m 404 81 b 389 60 393 79 388 71 b 407 44 390 50 397 43 b 424 64 418 44 424 54 b 404 81 422 74 415 82 z m 474 96 b 463 72 463 92 460 82 b 485 63 467 63 475 58 l 499 67 l 486 100 z m 503 100 l 519 110 l 524 101 l 508 93 l 511 88 l 526 96 l 531 89 l 514 81 l 518 75 l 540 88 l 524 118 l 500 107 z m 60 365 b 79 382 71 365 79 371 b 61 400 79 394 71 400 b 43 383 50 401 43 394 b 60 365 42 372 50 367 z m 44 346 l 44 338 l 81 342 l 79 349 z m 551 138 b 547 113 542 131 542 121 b 572 108 554 104 564 103 l 583 117 l 563 146 z m 585 168 b 585 146 579 163 576 156 l 600 132 l 606 138 l 590 153 b 589 164 586 157 586 161 b 601 163 592 167 596 168 l 617 147 l 621 153 l 607 168 b 585 168 597 176 590 174 z m 72 425 b 56 428 65 426 58 428 b 85 436 60 429 78 435 l 88 446 l 51 453 l 50 446 l 61 443 b 76 442 67 443 72 442 l 76 440 b 47 432 72 440 57 435 l 46 422 l 81 415 l 82 422 z m 71 308 b 74 317 71 314 71 317 b 79 313 76 318 79 317 b 76 304 81 308 79 306 l 78 296 b 86 313 83 299 88 304 b 72 325 83 322 78 326 b 64 310 67 324 64 321 b 60 301 63 304 63 301 b 56 306 57 301 56 303 b 58 313 54 310 57 313 l 57 321 b 50 304 51 318 47 314 b 63 294 51 296 57 293 b 71 308 67 294 71 299 z m 85 261 l 83 265 b 86 274 82 271 83 272 l 88 275 b 94 278 90 275 93 276 l 92 285 b 86 282 90 283 88 283 l 83 281 b 78 274 78 279 78 276 b 68 276 75 276 72 278 b 63 261 63 274 60 268 l 68 246 l 101 258 l 99 267 z m 101 243 l 111 226 l 103 222 l 94 236 l 89 233 l 97 218 l 90 215 l 82 231 l 76 228 l 89 206 l 119 222 l 108 244 z m 103 183 l 119 189 b 132 193 125 190 129 192 b 124 182 131 190 128 186 l 114 168 l 119 161 l 140 193 l 135 200 l 99 189 z m 167 154 l 181 142 l 175 135 l 161 146 l 157 142 l 171 131 l 165 125 l 151 136 l 149 132 l 167 115 l 190 142 l 171 158 z m 215 118 l 210 110 l 196 119 l 192 114 l 207 104 l 203 99 l 188 108 l 183 103 l 206 89 l 225 119 l 203 133 l 199 128 z m 246 92 b 242 100 240 94 240 96 l 243 100 b 246 108 244 104 244 106 l 239 111 b 236 104 239 110 238 107 l 236 103 b 236 93 233 97 235 94 b 228 88 233 93 229 92 b 235 74 225 82 228 76 l 249 67 l 264 100 l 257 103 l 251 90 z m 275 81 l 272 74 l 289 69 l 286 61 l 269 67 l 268 60 l 292 53 l 301 88 l 294 89 l 290 75 z m 364 68 b 363 51 363 61 363 54 b 350 79 361 56 353 72 l 340 81 l 339 44 l 346 44 l 346 54 b 347 71 346 60 347 67 b 360 43 349 67 356 51 l 369 43 l 371 78 l 364 79 z m 610 185 l 619 199 l 643 182 l 649 188 l 619 208 l 604 189 z m 658 242 b 635 235 649 246 639 246 b 638 217 631 228 632 221 l 640 224 b 639 232 639 225 638 228 b 654 235 643 238 649 238 b 661 221 660 231 664 226 b 653 217 658 217 656 215 l 649 210 b 667 218 656 208 663 210 b 658 242 672 228 667 236 z m 97 538 b 113 542 101 535 106 535 b 121 544 117 546 119 546 b 122 538 124 543 124 542 b 113 535 119 535 117 533 l 108 528 b 126 533 115 525 121 526 b 125 551 132 542 131 549 b 108 547 121 554 117 556 b 100 544 104 543 103 543 b 100 550 99 546 99 547 b 107 553 103 554 106 554 l 111 560 b 94 554 107 563 100 561 b 97 538 90 547 92 540 z m 667 283 b 683 278 672 281 679 279 b 651 272 678 278 660 274 l 649 264 l 682 253 l 685 260 l 675 263 b 660 268 669 264 664 267 b 689 272 664 268 681 271 l 693 282 l 658 293 l 657 286 z m 138 572 l 142 578 b 142 594 147 583 147 590 b 125 593 138 600 131 599 l 115 582 l 143 558 l 147 564 z m 333 375 b 199 261 296 318 253 261 b 215 396 124 261 168 369 b 213 401 221 397 217 404 b 204 253 160 371 114 253 b 350 371 267 253 313 311 l 351 374 l 349 374 b 333 375 343 374 338 375 z m 697 303 l 699 311 l 664 318 l 663 311 z m 188 611 l 174 599 l 167 606 l 181 617 l 176 622 l 163 611 l 158 617 l 171 628 l 167 633 l 149 617 l 171 589 l 190 606 z m 217 624 b 224 642 224 628 225 635 l 217 638 b 214 629 217 635 218 632 b 199 635 207 625 203 629 b 200 649 196 640 194 646 b 210 649 204 651 207 650 l 215 653 b 197 654 213 657 206 660 b 193 629 188 649 188 638 b 217 624 199 621 207 617 z m 374 747 b 0 374 167 747 0 581 b 374 0 0 168 168 0 b 747 374 581 0 747 167 b 374 747 747 582 582 747 z m 642 374 b 374 642 642 521 521 642 b 107 374 226 642 107 521 b 374 107 107 226 226 107 b 642 374 521 107 642 226 z m 235 675 l 228 671 l 243 639 l 250 642 z m 282 664 l 288 657 l 296 660 l 272 689 l 263 686 l 263 649 l 269 650 l 269 660 z m 332 674 l 315 669 l 310 699 l 303 697 l 308 663 l 333 667 z m 385 668 b 394 672 389 668 393 669 b 396 669 394 671 394 669 l 401 668 l 401 689 l 386 689 l 386 683 l 394 682 b 386 675 394 679 393 675 b 376 688 379 675 376 681 b 386 700 376 693 379 700 b 394 694 392 699 393 696 l 401 693 b 388 706 401 700 396 706 b 369 688 376 706 369 699 b 385 668 368 676 374 669 z m 426 671 l 432 700 l 425 701 l 418 667 l 442 661 l 444 668 z m 422 392 b 494 426 449 400 474 413 b 504 394 486 411 483 394 b 544 494 553 394 600 494 b 404 394 493 494 439 447 b 360 386 389 389 372 386 b 394 444 372 407 383 428 b 440 494 446 446 467 494 b 383 453 421 494 403 478 b 326 460 365 454 344 460 b 283 436 308 460 292 454 b 335 379 271 410 296 385 b 350 378 339 378 344 378 l 354 378 b 422 392 375 378 403 383 z m 588 396 b 425 261 549 317 468 261 b 421 388 375 261 385 326 b 397 381 413 385 404 382 b 415 253 361 318 356 253 b 594 393 478 253 556 314 b 588 396 597 397 590 401 z m 458 657 l 467 654 l 469 667 b 471 668 469 668 471 668 l 489 685 l 481 688 b 468 674 476 683 471 678 b 465 693 468 678 467 686 l 457 694 l 463 671 b 463 669 463 669 463 669 z m 508 653 b 525 657 514 649 521 650 b 518 672 528 663 525 669 l 504 679 l 489 646 l 496 643 l 501 656 z m 554 628 l 546 615 l 551 610 l 572 640 l 565 644 l 557 633 l 546 640 l 553 653 l 547 657 l 526 628 l 533 622 l 542 636 z m 571 608 b 574 590 567 604 567 597 b 592 589 581 585 588 585 b 590 606 596 593 596 597 b 588 614 588 611 586 613 b 594 614 590 617 592 617 b 596 607 597 611 597 608 l 601 601 b 599 618 604 606 606 611 b 582 619 592 624 586 624 b 583 603 579 615 578 611 b 586 594 588 599 588 596 b 578 594 583 592 582 592 b 576 604 575 597 575 600 z m 638 574 l 610 553 l 614 546 l 643 568 z m 643 531 b 642 521 644 524 644 522 b 635 524 639 519 638 519 b 636 532 633 526 633 531 l 632 539 b 629 521 626 535 625 529 b 646 514 635 513 640 511 b 650 531 651 517 653 521 b 650 539 649 536 649 538 b 657 538 653 540 654 540 b 656 529 658 533 657 531 l 660 522 b 661 540 664 525 667 532 b 646 546 657 547 651 549 b 643 531 642 543 640 539 z m 665 471 b 681 476 671 472 678 475 b 658 454 678 472 664 460 l 661 444 l 696 456 l 693 463 l 683 458 b 668 454 678 457 672 456 b 689 475 671 457 683 469 l 686 485 l 653 474 l 654 468 z m 682 432 b 667 413 672 431 665 424 b 688 397 668 401 678 396 b 703 417 697 399 704 407 b 682 432 701 428 693 433 z m 699 372 l 669 372 l 669 365 l 699 364 l 699 354 l 704 354 l 706 383 l 699 383 z "},"6":{"ha":794,"x_min":0,"x_max":0,"o":"m 239 79 b 235 85 235 81 233 82 b 242 86 236 88 239 89 l 249 85 l 244 76 z m 407 50 b 397 61 400 50 397 54 b 404 75 396 68 397 74 b 415 63 411 75 415 69 b 407 50 417 56 414 51 z m 483 68 b 471 75 476 65 472 69 b 476 90 468 82 469 88 l 481 92 l 489 69 z m 61 393 b 72 383 68 392 74 390 b 60 374 72 376 67 374 b 49 383 53 374 49 376 b 61 393 49 390 54 393 z m 68 263 b 71 269 68 265 68 268 b 78 265 74 269 76 269 l 79 258 l 71 256 z m 568 114 b 554 117 563 110 557 113 b 554 132 550 122 549 128 l 560 136 l 574 117 z m 125 583 l 129 588 b 138 589 132 590 135 592 b 138 581 140 586 139 583 l 133 576 z m 269 682 b 279 669 271 679 274 675 l 269 665 b 268 682 269 672 269 679 z m 339 386 b 290 433 304 389 279 411 b 325 451 297 447 310 451 b 379 446 342 451 361 447 b 339 386 365 428 353 407 z m 374 7 b 7 374 172 7 7 172 b 374 740 7 576 172 740 b 740 374 576 740 740 576 b 374 7 740 172 576 7 z m 374 114 b 114 374 231 114 114 231 b 374 635 114 518 231 635 b 635 374 518 635 635 518 b 374 114 635 231 518 114 z m 440 488 b 400 453 450 488 436 456 b 440 488 414 474 428 488 z m 544 488 b 504 403 588 488 544 403 b 518 444 482 403 513 440 l 518 446 b 513 451 521 449 515 453 b 429 401 489 428 460 413 b 544 488 460 449 503 488 z m 514 667 b 518 660 518 665 519 664 b 510 658 517 657 513 657 l 504 661 l 508 669 z m 697 417 b 686 406 697 410 693 406 b 672 413 679 404 674 406 b 683 424 672 419 676 424 b 697 417 690 425 696 422 z m 404 81 b 389 60 393 79 388 71 b 407 44 390 50 397 43 b 424 64 418 44 424 54 b 404 81 422 74 415 82 z m 474 96 b 463 72 463 92 460 82 b 485 63 467 63 475 58 l 499 67 l 486 100 z m 503 100 l 519 110 l 524 101 l 508 93 l 511 88 l 526 96 l 531 89 l 514 81 l 518 75 l 540 88 l 524 118 l 500 107 z m 60 365 b 79 382 71 365 79 371 b 61 400 79 394 71 400 b 43 383 50 401 43 394 b 60 365 42 372 50 367 z m 44 346 l 44 338 l 81 342 l 79 349 z m 551 138 b 547 113 542 131 542 121 b 572 108 554 104 564 103 l 583 117 l 563 146 z m 585 168 b 585 146 579 163 576 156 l 600 132 l 606 138 l 590 153 b 589 164 586 157 586 161 b 601 163 592 167 596 168 l 617 147 l 621 153 l 607 168 b 585 168 597 176 590 174 z m 72 425 b 56 428 65 426 58 428 b 85 436 60 429 78 435 l 88 446 l 51 453 l 50 446 l 61 443 b 76 442 67 443 72 442 l 76 440 b 47 432 72 440 57 435 l 46 422 l 81 415 l 82 422 z m 71 308 b 74 317 71 314 71 317 b 79 313 76 318 79 317 b 76 304 81 308 79 306 l 78 296 b 86 313 83 299 88 304 b 72 325 83 322 78 326 b 64 310 67 324 64 321 b 60 301 63 304 63 301 b 56 306 57 301 56 303 b 58 313 54 310 57 313 l 57 321 b 50 304 51 318 47 314 b 63 294 51 296 57 293 b 71 308 67 294 71 299 z m 85 261 l 83 265 b 86 274 82 271 83 272 l 88 275 b 94 278 90 275 93 276 l 92 285 b 86 282 90 283 88 283 l 83 281 b 78 274 78 279 78 276 b 68 276 75 276 72 278 b 63 261 63 274 60 268 l 68 246 l 101 258 l 99 267 z m 101 243 l 111 226 l 103 222 l 94 236 l 89 233 l 97 218 l 90 215 l 82 231 l 76 228 l 89 206 l 119 222 l 108 244 z m 103 183 l 119 189 b 132 193 125 190 129 192 b 124 182 131 190 128 186 l 114 168 l 119 161 l 140 193 l 135 200 l 99 189 z m 167 154 l 181 142 l 175 135 l 161 146 l 157 142 l 171 131 l 165 125 l 151 136 l 149 132 l 167 115 l 190 142 l 171 158 z m 215 118 l 210 110 l 196 119 l 192 114 l 207 104 l 203 99 l 188 108 l 183 103 l 206 89 l 225 119 l 203 133 l 199 128 z m 246 92 b 242 100 240 94 240 96 l 243 100 b 246 108 244 104 244 106 l 239 111 b 236 104 239 110 238 107 l 236 103 b 236 93 233 97 235 94 b 228 88 233 93 229 92 b 235 74 225 82 228 76 l 249 67 l 264 100 l 257 103 l 251 90 z m 275 81 l 272 74 l 289 69 l 286 61 l 269 67 l 268 60 l 292 53 l 301 88 l 294 89 l 290 75 z m 364 68 b 363 51 363 61 363 54 b 350 79 361 56 353 72 l 340 81 l 339 44 l 346 44 l 346 54 b 347 71 346 60 347 67 b 360 43 349 67 356 51 l 369 43 l 371 78 l 364 79 z m 610 185 l 619 199 l 643 182 l 649 188 l 619 208 l 604 189 z m 658 242 b 635 235 649 246 639 246 b 638 217 631 228 632 221 l 640 224 b 639 232 639 225 638 228 b 654 235 643 238 649 238 b 661 221 660 231 664 226 b 653 217 658 217 656 215 l 649 210 b 667 218 656 208 663 210 b 658 242 672 228 667 236 z m 97 538 b 113 542 101 535 106 535 b 121 544 117 546 119 546 b 122 538 124 543 124 542 b 113 535 119 535 117 533 l 108 528 b 126 533 115 525 121 526 b 125 551 132 542 131 549 b 108 547 121 554 117 556 b 100 544 104 543 103 543 b 100 550 99 546 99 547 b 107 553 103 554 106 554 l 111 560 b 94 554 107 563 100 561 b 97 538 90 547 92 540 z m 667 283 b 683 278 672 281 679 279 b 651 272 678 278 660 274 l 649 264 l 682 253 l 685 260 l 675 263 b 660 268 669 264 664 267 b 689 272 664 268 681 271 l 693 282 l 658 293 l 657 286 z m 138 572 l 142 578 b 142 594 147 583 147 590 b 125 593 138 600 131 599 l 115 582 l 143 558 l 147 564 z m 333 375 b 199 261 296 318 253 261 b 215 396 124 261 168 369 b 213 401 221 397 217 404 b 204 253 160 371 114 253 b 350 371 267 253 313 311 l 351 374 l 349 374 b 333 375 343 374 338 375 z m 697 303 l 699 311 l 664 318 l 663 311 z m 188 611 l 174 599 l 167 606 l 181 617 l 176 622 l 163 611 l 158 617 l 171 628 l 167 633 l 149 617 l 171 589 l 190 606 z m 217 624 b 224 642 224 628 225 635 l 217 638 b 214 629 217 635 218 632 b 199 635 207 625 203 629 b 200 649 196 640 194 646 b 210 649 204 651 207 650 l 215 653 b 197 654 213 657 206 660 b 193 629 188 649 188 638 b 217 624 199 621 207 617 z m 374 747 b 0 374 167 747 0 581 b 374 0 0 168 168 0 b 747 374 581 0 747 167 b 374 747 747 582 582 747 z m 642 374 b 374 642 642 521 521 642 b 107 374 226 642 107 521 b 374 107 107 226 226 107 b 642 374 521 107 642 226 z m 235 675 l 228 671 l 243 639 l 250 642 z m 282 664 l 288 657 l 296 660 l 272 689 l 263 686 l 263 649 l 269 650 l 269 660 z m 332 674 l 315 669 l 310 699 l 303 697 l 308 663 l 333 667 z m 385 668 b 394 672 389 668 393 669 b 396 669 394 671 394 669 l 401 668 l 401 689 l 386 689 l 386 683 l 394 682 b 386 675 394 679 393 675 b 376 688 379 675 376 681 b 386 700 376 693 379 700 b 394 694 392 699 393 696 l 401 693 b 388 706 401 700 396 706 b 369 688 376 706 369 699 b 385 668 368 676 374 669 z m 426 671 l 432 700 l 425 701 l 418 667 l 442 661 l 444 668 z m 422 392 b 494 426 449 400 474 413 b 504 394 486 411 483 394 b 544 494 553 394 600 494 b 404 394 493 494 439 447 b 360 386 389 389 372 386 b 394 444 372 407 383 428 b 440 494 446 446 467 494 b 383 453 421 494 403 478 b 326 460 365 454 344 460 b 283 436 308 460 292 454 b 335 379 271 410 296 385 b 350 378 339 378 344 378 l 354 378 b 422 392 375 378 403 383 z m 588 396 b 425 261 549 317 468 261 b 421 388 375 261 385 326 b 397 381 413 385 404 382 b 415 253 361 318 356 253 b 594 393 478 253 556 314 b 588 396 597 397 590 401 z m 458 657 l 467 654 l 469 667 b 471 668 469 668 471 668 l 489 685 l 481 688 b 468 674 476 683 471 678 b 465 693 468 678 467 686 l 457 694 l 463 671 b 463 669 463 669 463 669 z m 508 653 b 525 657 514 649 521 650 b 518 672 528 663 525 669 l 504 679 l 489 646 l 496 643 l 501 656 z m 554 628 l 546 615 l 551 610 l 572 640 l 565 644 l 557 633 l 546 640 l 553 653 l 547 657 l 526 628 l 533 622 l 542 636 z m 571 608 b 574 590 567 604 567 597 b 592 589 581 585 588 585 b 590 606 596 593 596 597 b 588 614 588 611 586 613 b 594 614 590 617 592 617 b 596 607 597 611 597 608 l 601 601 b 599 618 604 606 606 611 b 582 619 592 624 586 624 b 583 603 579 615 578 611 b 586 594 588 599 588 596 b 578 594 583 592 582 592 b 576 604 575 597 575 600 z m 638 574 l 610 553 l 614 546 l 643 568 z m 643 531 b 642 521 644 524 644 522 b 635 524 639 519 638 519 b 636 532 633 526 633 531 l 632 539 b 629 521 626 535 625 529 b 646 514 635 513 640 511 b 650 531 651 517 653 521 b 650 539 649 536 649 538 b 657 538 653 540 654 540 b 656 529 658 533 657 531 l 660 522 b 661 540 664 525 667 532 b 646 546 657 547 651 549 b 643 531 642 543 640 539 z m 665 471 b 681 476 671 472 678 475 b 658 454 678 472 664 460 l 661 444 l 696 456 l 693 463 l 683 458 b 668 454 678 457 672 456 b 689 475 671 457 683 469 l 686 485 l 653 474 l 654 468 z m 682 432 b 667 413 672 431 665 424 b 688 397 668 401 678 396 b 703 417 697 399 704 407 b 682 432 701 428 693 433 z m 699 372 l 669 372 l 669 365 l 699 364 l 699 354 l 704 354 l 706 383 l 699 383 z "},"7":{"ha":794,"x_min":0,"x_max":0,"o":"m 239 79 b 235 85 235 81 233 82 b 242 86 236 88 239 89 l 249 85 l 244 76 z m 407 50 b 397 61 400 50 397 54 b 404 75 396 68 397 74 b 415 63 411 75 415 69 b 407 50 417 56 414 51 z m 483 68 b 471 75 476 65 472 69 b 476 90 468 82 469 88 l 481 92 l 489 69 z m 61 393 b 72 383 68 392 74 390 b 60 374 72 376 67 374 b 49 383 53 374 49 376 b 61 393 49 390 54 393 z m 68 263 b 71 269 68 265 68 268 b 78 265 74 269 76 269 l 79 258 l 71 256 z m 568 114 b 554 117 563 110 557 113 b 554 132 550 122 549 128 l 560 136 l 574 117 z m 125 583 l 129 588 b 138 589 132 590 135 592 b 138 581 140 586 139 583 l 133 576 z m 269 682 b 279 669 271 679 274 675 l 269 665 b 268 682 269 672 269 679 z m 339 386 b 290 433 304 389 279 411 b 325 451 297 447 310 451 b 379 446 342 451 361 447 b 339 386 365 428 353 407 z m 374 7 b 7 374 172 7 7 172 b 374 740 7 576 172 740 b 740 374 576 740 740 576 b 374 7 740 172 576 7 z m 374 114 b 114 374 231 114 114 231 b 374 635 114 518 231 635 b 635 374 518 635 635 518 b 374 114 635 231 518 114 z m 440 488 b 400 453 450 488 436 456 b 440 488 414 474 428 488 z m 544 488 b 504 403 588 488 544 403 b 518 444 482 403 513 440 l 518 446 b 513 451 521 449 515 453 b 429 401 489 428 460 413 b 544 488 460 449 503 488 z m 514 667 b 518 660 518 665 519 664 b 510 658 517 657 513 657 l 504 661 l 508 669 z m 697 417 b 686 406 697 410 693 406 b 672 413 679 404 674 406 b 683 424 672 419 676 424 b 697 417 690 425 696 422 z m 404 81 b 389 60 393 79 388 71 b 407 44 390 50 397 43 b 424 64 418 44 424 54 b 404 81 422 74 415 82 z m 474 96 b 463 72 463 92 460 82 b 485 63 467 63 475 58 l 499 67 l 486 100 z m 503 100 l 519 110 l 524 101 l 508 93 l 511 88 l 526 96 l 531 89 l 514 81 l 518 75 l 540 88 l 524 118 l 500 107 z m 60 365 b 79 382 71 365 79 371 b 61 400 79 394 71 400 b 43 383 50 401 43 394 b 60 365 42 372 50 367 z m 44 346 l 44 338 l 81 342 l 79 349 z m 551 138 b 547 113 542 131 542 121 b 572 108 554 104 564 103 l 583 117 l 563 146 z m 585 168 b 585 146 579 163 576 156 l 600 132 l 606 138 l 590 153 b 589 164 586 157 586 161 b 601 163 592 167 596 168 l 617 147 l 621 153 l 607 168 b 585 168 597 176 590 174 z m 72 425 b 56 428 65 426 58 428 b 85 436 60 429 78 435 l 88 446 l 51 453 l 50 446 l 61 443 b 76 442 67 443 72 442 l 76 440 b 47 432 72 440 57 435 l 46 422 l 81 415 l 82 422 z m 71 308 b 74 317 71 314 71 317 b 79 313 76 318 79 317 b 76 304 81 308 79 306 l 78 296 b 86 313 83 299 88 304 b 72 325 83 322 78 326 b 64 310 67 324 64 321 b 60 301 63 304 63 301 b 56 306 57 301 56 303 b 58 313 54 310 57 313 l 57 321 b 50 304 51 318 47 314 b 63 294 51 296 57 293 b 71 308 67 294 71 299 z m 85 261 l 83 265 b 86 274 82 271 83 272 l 88 275 b 94 278 90 275 93 276 l 92 285 b 86 282 90 283 88 283 l 83 281 b 78 274 78 279 78 276 b 68 276 75 276 72 278 b 63 261 63 274 60 268 l 68 246 l 101 258 l 99 267 z m 101 243 l 111 226 l 103 222 l 94 236 l 89 233 l 97 218 l 90 215 l 82 231 l 76 228 l 89 206 l 119 222 l 108 244 z m 103 183 l 119 189 b 132 193 125 190 129 192 b 124 182 131 190 128 186 l 114 168 l 119 161 l 140 193 l 135 200 l 99 189 z m 167 154 l 181 142 l 175 135 l 161 146 l 157 142 l 171 131 l 165 125 l 151 136 l 149 132 l 167 115 l 190 142 l 171 158 z m 215 118 l 210 110 l 196 119 l 192 114 l 207 104 l 203 99 l 188 108 l 183 103 l 206 89 l 225 119 l 203 133 l 199 128 z m 246 92 b 242 100 240 94 240 96 l 243 100 b 246 108 244 104 244 106 l 239 111 b 236 104 239 110 238 107 l 236 103 b 236 93 233 97 235 94 b 228 88 233 93 229 92 b 235 74 225 82 228 76 l 249 67 l 264 100 l 257 103 l 251 90 z m 275 81 l 272 74 l 289 69 l 286 61 l 269 67 l 268 60 l 292 53 l 301 88 l 294 89 l 290 75 z m 364 68 b 363 51 363 61 363 54 b 350 79 361 56 353 72 l 340 81 l 339 44 l 346 44 l 346 54 b 347 71 346 60 347 67 b 360 43 349 67 356 51 l 369 43 l 371 78 l 364 79 z m 610 185 l 619 199 l 643 182 l 649 188 l 619 208 l 604 189 z m 658 242 b 635 235 649 246 639 246 b 638 217 631 228 632 221 l 640 224 b 639 232 639 225 638 228 b 654 235 643 238 649 238 b 661 221 660 231 664 226 b 653 217 658 217 656 215 l 649 210 b 667 218 656 208 663 210 b 658 242 672 228 667 236 z m 97 538 b 113 542 101 535 106 535 b 121 544 117 546 119 546 b 122 538 124 543 124 542 b 113 535 119 535 117 533 l 108 528 b 126 533 115 525 121 526 b 125 551 132 542 131 549 b 108 547 121 554 117 556 b 100 544 104 543 103 543 b 100 550 99 546 99 547 b 107 553 103 554 106 554 l 111 560 b 94 554 107 563 100 561 b 97 538 90 547 92 540 z m 667 283 b 683 278 672 281 679 279 b 651 272 678 278 660 274 l 649 264 l 682 253 l 685 260 l 675 263 b 660 268 669 264 664 267 b 689 272 664 268 681 271 l 693 282 l 658 293 l 657 286 z m 138 572 l 142 578 b 142 594 147 583 147 590 b 125 593 138 600 131 599 l 115 582 l 143 558 l 147 564 z m 333 375 b 199 261 296 318 253 261 b 215 396 124 261 168 369 b 213 401 221 397 217 404 b 204 253 160 371 114 253 b 350 371 267 253 313 311 l 351 374 l 349 374 b 333 375 343 374 338 375 z m 697 303 l 699 311 l 664 318 l 663 311 z m 188 611 l 174 599 l 167 606 l 181 617 l 176 622 l 163 611 l 158 617 l 171 628 l 167 633 l 149 617 l 171 589 l 190 606 z m 217 624 b 224 642 224 628 225 635 l 217 638 b 214 629 217 635 218 632 b 199 635 207 625 203 629 b 200 649 196 640 194 646 b 210 649 204 651 207 650 l 215 653 b 197 654 213 657 206 660 b 193 629 188 649 188 638 b 217 624 199 621 207 617 z m 374 747 b 0 374 167 747 0 581 b 374 0 0 168 168 0 b 747 374 581 0 747 167 b 374 747 747 582 582 747 z m 642 374 b 374 642 642 521 521 642 b 107 374 226 642 107 521 b 374 107 107 226 226 107 b 642 374 521 107 642 226 z m 235 675 l 228 671 l 243 639 l 250 642 z m 282 664 l 288 657 l 296 660 l 272 689 l 263 686 l 263 649 l 269 650 l 269 660 z m 332 674 l 315 669 l 310 699 l 303 697 l 308 663 l 333 667 z m 385 668 b 394 672 389 668 393 669 b 396 669 394 671 394 669 l 401 668 l 401 689 l 386 689 l 386 683 l 394 682 b 386 675 394 679 393 675 b 376 688 379 675 376 681 b 386 700 376 693 379 700 b 394 694 392 699 393 696 l 401 693 b 388 706 401 700 396 706 b 369 688 376 706 369 699 b 385 668 368 676 374 669 z m 426 671 l 432 700 l 425 701 l 418 667 l 442 661 l 444 668 z m 422 392 b 494 426 449 400 474 413 b 504 394 486 411 483 394 b 544 494 553 394 600 494 b 404 394 493 494 439 447 b 360 386 389 389 372 386 b 394 444 372 407 383 428 b 440 494 446 446 467 494 b 383 453 421 494 403 478 b 326 460 365 454 344 460 b 283 436 308 460 292 454 b 335 379 271 410 296 385 b 350 378 339 378 344 378 l 354 378 b 422 392 375 378 403 383 z m 588 396 b 425 261 549 317 468 261 b 421 388 375 261 385 326 b 397 381 413 385 404 382 b 415 253 361 318 356 253 b 594 393 478 253 556 314 b 588 396 597 397 590 401 z m 458 657 l 467 654 l 469 667 b 471 668 469 668 471 668 l 489 685 l 481 688 b 468 674 476 683 471 678 b 465 693 468 678 467 686 l 457 694 l 463 671 b 463 669 463 669 463 669 z m 508 653 b 525 657 514 649 521 650 b 518 672 528 663 525 669 l 504 679 l 489 646 l 496 643 l 501 656 z m 554 628 l 546 615 l 551 610 l 572 640 l 565 644 l 557 633 l 546 640 l 553 653 l 547 657 l 526 628 l 533 622 l 542 636 z m 571 608 b 574 590 567 604 567 597 b 592 589 581 585 588 585 b 590 606 596 593 596 597 b 588 614 588 611 586 613 b 594 614 590 617 592 617 b 596 607 597 611 597 608 l 601 601 b 599 618 604 606 606 611 b 582 619 592 624 586 624 b 583 603 579 615 578 611 b 586 594 588 599 588 596 b 578 594 583 592 582 592 b 576 604 575 597 575 600 z m 638 574 l 610 553 l 614 546 l 643 568 z m 643 531 b 642 521 644 524 644 522 b 635 524 639 519 638 519 b 636 532 633 526 633 531 l 632 539 b 629 521 626 535 625 529 b 646 514 635 513 640 511 b 650 531 651 517 653 521 b 650 539 649 536 649 538 b 657 538 653 540 654 540 b 656 529 658 533 657 531 l 660 522 b 661 540 664 525 667 532 b 646 546 657 547 651 549 b 643 531 642 543 640 539 z m 665 471 b 681 476 671 472 678 475 b 658 454 678 472 664 460 l 661 444 l 696 456 l 693 463 l 683 458 b 668 454 678 457 672 456 b 689 475 671 457 683 469 l 686 485 l 653 474 l 654 468 z m 682 432 b 667 413 672 431 665 424 b 688 397 668 401 678 396 b 703 417 697 399 704 407 b 682 432 701 428 693 433 z m 699 372 l 669 372 l 669 365 l 699 364 l 699 354 l 704 354 l 706 383 l 699 383 z "},"8":{"ha":794,"x_min":0,"x_max":0,"o":"m 239 79 b 235 85 235 81 233 82 b 242 86 236 88 239 89 l 249 85 l 244 76 z m 407 50 b 397 61 400 50 397 54 b 404 75 396 68 397 74 b 415 63 411 75 415 69 b 407 50 417 56 414 51 z m 483 68 b 471 75 476 65 472 69 b 476 90 468 82 469 88 l 481 92 l 489 69 z m 61 393 b 72 383 68 392 74 390 b 60 374 72 376 67 374 b 49 383 53 374 49 376 b 61 393 49 390 54 393 z m 68 263 b 71 269 68 265 68 268 b 78 265 74 269 76 269 l 79 258 l 71 256 z m 568 114 b 554 117 563 110 557 113 b 554 132 550 122 549 128 l 560 136 l 574 117 z m 125 583 l 129 588 b 138 589 132 590 135 592 b 138 581 140 586 139 583 l 133 576 z m 269 682 b 279 669 271 679 274 675 l 269 665 b 268 682 269 672 269 679 z m 339 386 b 290 433 304 389 279 411 b 325 451 297 447 310 451 b 379 446 342 451 361 447 b 339 386 365 428 353 407 z m 374 7 b 7 374 172 7 7 172 b 374 740 7 576 172 740 b 740 374 576 740 740 576 b 374 7 740 172 576 7 z m 374 114 b 114 374 231 114 114 231 b 374 635 114 518 231 635 b 635 374 518 635 635 518 b 374 114 635 231 518 114 z m 440 488 b 400 453 450 488 436 456 b 440 488 414 474 428 488 z m 544 488 b 504 403 588 488 544 403 b 518 444 482 403 513 440 l 518 446 b 513 451 521 449 515 453 b 429 401 489 428 460 413 b 544 488 460 449 503 488 z m 514 667 b 518 660 518 665 519 664 b 510 658 517 657 513 657 l 504 661 l 508 669 z m 697 417 b 686 406 697 410 693 406 b 672 413 679 404 674 406 b 683 424 672 419 676 424 b 697 417 690 425 696 422 z m 404 81 b 389 60 393 79 388 71 b 407 44 390 50 397 43 b 424 64 418 44 424 54 b 404 81 422 74 415 82 z m 474 96 b 463 72 463 92 460 82 b 485 63 467 63 475 58 l 499 67 l 486 100 z m 503 100 l 519 110 l 524 101 l 508 93 l 511 88 l 526 96 l 531 89 l 514 81 l 518 75 l 540 88 l 524 118 l 500 107 z m 60 365 b 79 382 71 365 79 371 b 61 400 79 394 71 400 b 43 383 50 401 43 394 b 60 365 42 372 50 367 z m 44 346 l 44 338 l 81 342 l 79 349 z m 551 138 b 547 113 542 131 542 121 b 572 108 554 104 564 103 l 583 117 l 563 146 z m 585 168 b 585 146 579 163 576 156 l 600 132 l 606 138 l 590 153 b 589 164 586 157 586 161 b 601 163 592 167 596 168 l 617 147 l 621 153 l 607 168 b 585 168 597 176 590 174 z m 72 425 b 56 428 65 426 58 428 b 85 436 60 429 78 435 l 88 446 l 51 453 l 50 446 l 61 443 b 76 442 67 443 72 442 l 76 440 b 47 432 72 440 57 435 l 46 422 l 81 415 l 82 422 z m 71 308 b 74 317 71 314 71 317 b 79 313 76 318 79 317 b 76 304 81 308 79 306 l 78 296 b 86 313 83 299 88 304 b 72 325 83 322 78 326 b 64 310 67 324 64 321 b 60 301 63 304 63 301 b 56 306 57 301 56 303 b 58 313 54 310 57 313 l 57 321 b 50 304 51 318 47 314 b 63 294 51 296 57 293 b 71 308 67 294 71 299 z m 85 261 l 83 265 b 86 274 82 271 83 272 l 88 275 b 94 278 90 275 93 276 l 92 285 b 86 282 90 283 88 283 l 83 281 b 78 274 78 279 78 276 b 68 276 75 276 72 278 b 63 261 63 274 60 268 l 68 246 l 101 258 l 99 267 z m 101 243 l 111 226 l 103 222 l 94 236 l 89 233 l 97 218 l 90 215 l 82 231 l 76 228 l 89 206 l 119 222 l 108 244 z m 103 183 l 119 189 b 132 193 125 190 129 192 b 124 182 131 190 128 186 l 114 168 l 119 161 l 140 193 l 135 200 l 99 189 z m 167 154 l 181 142 l 175 135 l 161 146 l 157 142 l 171 131 l 165 125 l 151 136 l 149 132 l 167 115 l 190 142 l 171 158 z m 215 118 l 210 110 l 196 119 l 192 114 l 207 104 l 203 99 l 188 108 l 183 103 l 206 89 l 225 119 l 203 133 l 199 128 z m 246 92 b 242 100 240 94 240 96 l 243 100 b 246 108 244 104 244 106 l 239 111 b 236 104 239 110 238 107 l 236 103 b 236 93 233 97 235 94 b 228 88 233 93 229 92 b 235 74 225 82 228 76 l 249 67 l 264 100 l 257 103 l 251 90 z m 275 81 l 272 74 l 289 69 l 286 61 l 269 67 l 268 60 l 292 53 l 301 88 l 294 89 l 290 75 z m 364 68 b 363 51 363 61 363 54 b 350 79 361 56 353 72 l 340 81 l 339 44 l 346 44 l 346 54 b 347 71 346 60 347 67 b 360 43 349 67 356 51 l 369 43 l 371 78 l 364 79 z m 610 185 l 619 199 l 643 182 l 649 188 l 619 208 l 604 189 z m 658 242 b 635 235 649 246 639 246 b 638 217 631 228 632 221 l 640 224 b 639 232 639 225 638 228 b 654 235 643 238 649 238 b 661 221 660 231 664 226 b 653 217 658 217 656 215 l 649 210 b 667 218 656 208 663 210 b 658 242 672 228 667 236 z m 97 538 b 113 542 101 535 106 535 b 121 544 117 546 119 546 b 122 538 124 543 124 542 b 113 535 119 535 117 533 l 108 528 b 126 533 115 525 121 526 b 125 551 132 542 131 549 b 108 547 121 554 117 556 b 100 544 104 543 103 543 b 100 550 99 546 99 547 b 107 553 103 554 106 554 l 111 560 b 94 554 107 563 100 561 b 97 538 90 547 92 540 z m 667 283 b 683 278 672 281 679 279 b 651 272 678 278 660 274 l 649 264 l 682 253 l 685 260 l 675 263 b 660 268 669 264 664 267 b 689 272 664 268 681 271 l 693 282 l 658 293 l 657 286 z m 138 572 l 142 578 b 142 594 147 583 147 590 b 125 593 138 600 131 599 l 115 582 l 143 558 l 147 564 z m 333 375 b 199 261 296 318 253 261 b 215 396 124 261 168 369 b 213 401 221 397 217 404 b 204 253 160 371 114 253 b 350 371 267 253 313 311 l 351 374 l 349 374 b 333 375 343 374 338 375 z m 697 303 l 699 311 l 664 318 l 663 311 z m 188 611 l 174 599 l 167 606 l 181 617 l 176 622 l 163 611 l 158 617 l 171 628 l 167 633 l 149 617 l 171 589 l 190 606 z m 217 624 b 224 642 224 628 225 635 l 217 638 b 214 629 217 635 218 632 b 199 635 207 625 203 629 b 200 649 196 640 194 646 b 210 649 204 651 207 650 l 215 653 b 197 654 213 657 206 660 b 193 629 188 649 188 638 b 217 624 199 621 207 617 z m 374 747 b 0 374 167 747 0 581 b 374 0 0 168 168 0 b 747 374 581 0 747 167 b 374 747 747 582 582 747 z m 642 374 b 374 642 642 521 521 642 b 107 374 226 642 107 521 b 374 107 107 226 226 107 b 642 374 521 107 642 226 z m 235 675 l 228 671 l 243 639 l 250 642 z m 282 664 l 288 657 l 296 660 l 272 689 l 263 686 l 263 649 l 269 650 l 269 660 z m 332 674 l 315 669 l 310 699 l 303 697 l 308 663 l 333 667 z m 385 668 b 394 672 389 668 393 669 b 396 669 394 671 394 669 l 401 668 l 401 689 l 386 689 l 386 683 l 394 682 b 386 675 394 679 393 675 b 376 688 379 675 376 681 b 386 700 376 693 379 700 b 394 694 392 699 393 696 l 401 693 b 388 706 401 700 396 706 b 369 688 376 706 369 699 b 385 668 368 676 374 669 z m 426 671 l 432 700 l 425 701 l 418 667 l 442 661 l 444 668 z m 422 392 b 494 426 449 400 474 413 b 504 394 486 411 483 394 b 544 494 553 394 600 494 b 404 394 493 494 439 447 b 360 386 389 389 372 386 b 394 444 372 407 383 428 b 440 494 446 446 467 494 b 383 453 421 494 403 478 b 326 460 365 454 344 460 b 283 436 308 460 292 454 b 335 379 271 410 296 385 b 350 378 339 378 344 378 l 354 378 b 422 392 375 378 403 383 z m 588 396 b 425 261 549 317 468 261 b 421 388 375 261 385 326 b 397 381 413 385 404 382 b 415 253 361 318 356 253 b 594 393 478 253 556 314 b 588 396 597 397 590 401 z m 458 657 l 467 654 l 469 667 b 471 668 469 668 471 668 l 489 685 l 481 688 b 468 674 476 683 471 678 b 465 693 468 678 467 686 l 457 694 l 463 671 b 463 669 463 669 463 669 z m 508 653 b 525 657 514 649 521 650 b 518 672 528 663 525 669 l 504 679 l 489 646 l 496 643 l 501 656 z m 554 628 l 546 615 l 551 610 l 572 640 l 565 644 l 557 633 l 546 640 l 553 653 l 547 657 l 526 628 l 533 622 l 542 636 z m 571 608 b 574 590 567 604 567 597 b 592 589 581 585 588 585 b 590 606 596 593 596 597 b 588 614 588 611 586 613 b 594 614 590 617 592 617 b 596 607 597 611 597 608 l 601 601 b 599 618 604 606 606 611 b 582 619 592 624 586 624 b 583 603 579 615 578 611 b 586 594 588 599 588 596 b 578 594 583 592 582 592 b 576 604 575 597 575 600 z m 638 574 l 610 553 l 614 546 l 643 568 z m 643 531 b 642 521 644 524 644 522 b 635 524 639 519 638 519 b 636 532 633 526 633 531 l 632 539 b 629 521 626 535 625 529 b 646 514 635 513 640 511 b 650 531 651 517 653 521 b 650 539 649 536 649 538 b 657 538 653 540 654 540 b 656 529 658 533 657 531 l 660 522 b 661 540 664 525 667 532 b 646 546 657 547 651 549 b 643 531 642 543 640 539 z m 665 471 b 681 476 671 472 678 475 b 658 454 678 472 664 460 l 661 444 l 696 456 l 693 463 l 683 458 b 668 454 678 457 672 456 b 689 475 671 457 683 469 l 686 485 l 653 474 l 654 468 z m 682 432 b 667 413 672 431 665 424 b 688 397 668 401 678 396 b 703 417 697 399 704 407 b 682 432 701 428 693 433 z m 699 372 l 669 372 l 669 365 l 699 364 l 699 354 l 704 354 l 706 383 l 699 383 z "},"9":{"ha":794,"x_min":0,"x_max":0,"o":"m 239 79 b 235 85 235 81 233 82 b 242 86 236 88 239 89 l 249 85 l 244 76 z m 407 50 b 397 61 400 50 397 54 b 404 75 396 68 397 74 b 415 63 411 75 415 69 b 407 50 417 56 414 51 z m 483 68 b 471 75 476 65 472 69 b 476 90 468 82 469 88 l 481 92 l 489 69 z m 61 393 b 72 383 68 392 74 390 b 60 374 72 376 67 374 b 49 383 53 374 49 376 b 61 393 49 390 54 393 z m 68 263 b 71 269 68 265 68 268 b 78 265 74 269 76 269 l 79 258 l 71 256 z m 568 114 b 554 117 563 110 557 113 b 554 132 550 122 549 128 l 560 136 l 574 117 z m 125 583 l 129 588 b 138 589 132 590 135 592 b 138 581 140 586 139 583 l 133 576 z m 269 682 b 279 669 271 679 274 675 l 269 665 b 268 682 269 672 269 679 z m 339 386 b 290 433 304 389 279 411 b 325 451 297 447 310 451 b 379 446 342 451 361 447 b 339 386 365 428 353 407 z m 374 7 b 7 374 172 7 7 172 b 374 740 7 576 172 740 b 740 374 576 740 740 576 b 374 7 740 172 576 7 z m 374 114 b 114 374 231 114 114 231 b 374 635 114 518 231 635 b 635 374 518 635 635 518 b 374 114 635 231 518 114 z m 440 488 b 400 453 450 488 436 456 b 440 488 414 474 428 488 z m 544 488 b 504 403 588 488 544 403 b 518 444 482 403 513 440 l 518 446 b 513 451 521 449 515 453 b 429 401 489 428 460 413 b 544 488 460 449 503 488 z m 514 667 b 518 660 518 665 519 664 b 510 658 517 657 513 657 l 504 661 l 508 669 z m 697 417 b 686 406 697 410 693 406 b 672 413 679 404 674 406 b 683 424 672 419 676 424 b 697 417 690 425 696 422 z m 404 81 b 389 60 393 79 388 71 b 407 44 390 50 397 43 b 424 64 418 44 424 54 b 404 81 422 74 415 82 z m 474 96 b 463 72 463 92 460 82 b 485 63 467 63 475 58 l 499 67 l 486 100 z m 503 100 l 519 110 l 524 101 l 508 93 l 511 88 l 526 96 l 531 89 l 514 81 l 518 75 l 540 88 l 524 118 l 500 107 z m 60 365 b 79 382 71 365 79 371 b 61 400 79 394 71 400 b 43 383 50 401 43 394 b 60 365 42 372 50 367 z m 44 346 l 44 338 l 81 342 l 79 349 z m 551 138 b 547 113 542 131 542 121 b 572 108 554 104 564 103 l 583 117 l 563 146 z m 585 168 b 585 146 579 163 576 156 l 600 132 l 606 138 l 590 153 b 589 164 586 157 586 161 b 601 163 592 167 596 168 l 617 147 l 621 153 l 607 168 b 585 168 597 176 590 174 z m 72 425 b 56 428 65 426 58 428 b 85 436 60 429 78 435 l 88 446 l 51 453 l 50 446 l 61 443 b 76 442 67 443 72 442 l 76 440 b 47 432 72 440 57 435 l 46 422 l 81 415 l 82 422 z m 71 308 b 74 317 71 314 71 317 b 79 313 76 318 79 317 b 76 304 81 308 79 306 l 78 296 b 86 313 83 299 88 304 b 72 325 83 322 78 326 b 64 310 67 324 64 321 b 60 301 63 304 63 301 b 56 306 57 301 56 303 b 58 313 54 310 57 313 l 57 321 b 50 304 51 318 47 314 b 63 294 51 296 57 293 b 71 308 67 294 71 299 z m 85 261 l 83 265 b 86 274 82 271 83 272 l 88 275 b 94 278 90 275 93 276 l 92 285 b 86 282 90 283 88 283 l 83 281 b 78 274 78 279 78 276 b 68 276 75 276 72 278 b 63 261 63 274 60 268 l 68 246 l 101 258 l 99 267 z m 101 243 l 111 226 l 103 222 l 94 236 l 89 233 l 97 218 l 90 215 l 82 231 l 76 228 l 89 206 l 119 222 l 108 244 z m 103 183 l 119 189 b 132 193 125 190 129 192 b 124 182 131 190 128 186 l 114 168 l 119 161 l 140 193 l 135 200 l 99 189 z m 167 154 l 181 142 l 175 135 l 161 146 l 157 142 l 171 131 l 165 125 l 151 136 l 149 132 l 167 115 l 190 142 l 171 158 z m 215 118 l 210 110 l 196 119 l 192 114 l 207 104 l 203 99 l 188 108 l 183 103 l 206 89 l 225 119 l 203 133 l 199 128 z m 246 92 b 242 100 240 94 240 96 l 243 100 b 246 108 244 104 244 106 l 239 111 b 236 104 239 110 238 107 l 236 103 b 236 93 233 97 235 94 b 228 88 233 93 229 92 b 235 74 225 82 228 76 l 249 67 l 264 100 l 257 103 l 251 90 z m 275 81 l 272 74 l 289 69 l 286 61 l 269 67 l 268 60 l 292 53 l 301 88 l 294 89 l 290 75 z m 364 68 b 363 51 363 61 363 54 b 350 79 361 56 353 72 l 340 81 l 339 44 l 346 44 l 346 54 b 347 71 346 60 347 67 b 360 43 349 67 356 51 l 369 43 l 371 78 l 364 79 z m 610 185 l 619 199 l 643 182 l 649 188 l 619 208 l 604 189 z m 658 242 b 635 235 649 246 639 246 b 638 217 631 228 632 221 l 640 224 b 639 232 639 225 638 228 b 654 235 643 238 649 238 b 661 221 660 231 664 226 b 653 217 658 217 656 215 l 649 210 b 667 218 656 208 663 210 b 658 242 672 228 667 236 z m 97 538 b 113 542 101 535 106 535 b 121 544 117 546 119 546 b 122 538 124 543 124 542 b 113 535 119 535 117 533 l 108 528 b 126 533 115 525 121 526 b 125 551 132 542 131 549 b 108 547 121 554 117 556 b 100 544 104 543 103 543 b 100 550 99 546 99 547 b 107 553 103 554 106 554 l 111 560 b 94 554 107 563 100 561 b 97 538 90 547 92 540 z m 667 283 b 683 278 672 281 679 279 b 651 272 678 278 660 274 l 649 264 l 682 253 l 685 260 l 675 263 b 660 268 669 264 664 267 b 689 272 664 268 681 271 l 693 282 l 658 293 l 657 286 z m 138 572 l 142 578 b 142 594 147 583 147 590 b 125 593 138 600 131 599 l 115 582 l 143 558 l 147 564 z m 333 375 b 199 261 296 318 253 261 b 215 396 124 261 168 369 b 213 401 221 397 217 404 b 204 253 160 371 114 253 b 350 371 267 253 313 311 l 351 374 l 349 374 b 333 375 343 374 338 375 z m 697 303 l 699 311 l 664 318 l 663 311 z m 188 611 l 174 599 l 167 606 l 181 617 l 176 622 l 163 611 l 158 617 l 171 628 l 167 633 l 149 617 l 171 589 l 190 606 z m 217 624 b 224 642 224 628 225 635 l 217 638 b 214 629 217 635 218 632 b 199 635 207 625 203 629 b 200 649 196 640 194 646 b 210 649 204 651 207 650 l 215 653 b 197 654 213 657 206 660 b 193 629 188 649 188 638 b 217 624 199 621 207 617 z m 374 747 b 0 374 167 747 0 581 b 374 0 0 168 168 0 b 747 374 581 0 747 167 b 374 747 747 582 582 747 z m 642 374 b 374 642 642 521 521 642 b 107 374 226 642 107 521 b 374 107 107 226 226 107 b 642 374 521 107 642 226 z m 235 675 l 228 671 l 243 639 l 250 642 z m 282 664 l 288 657 l 296 660 l 272 689 l 263 686 l 263 649 l 269 650 l 269 660 z m 332 674 l 315 669 l 310 699 l 303 697 l 308 663 l 333 667 z m 385 668 b 394 672 389 668 393 669 b 396 669 394 671 394 669 l 401 668 l 401 689 l 386 689 l 386 683 l 394 682 b 386 675 394 679 393 675 b 376 688 379 675 376 681 b 386 700 376 693 379 700 b 394 694 392 699 393 696 l 401 693 b 388 706 401 700 396 706 b 369 688 376 706 369 699 b 385 668 368 676 374 669 z m 426 671 l 432 700 l 425 701 l 418 667 l 442 661 l 444 668 z m 422 392 b 494 426 449 400 474 413 b 504 394 486 411 483 394 b 544 494 553 394 600 494 b 404 394 493 494 439 447 b 360 386 389 389 372 386 b 394 444 372 407 383 428 b 440 494 446 446 467 494 b 383 453 421 494 403 478 b 326 460 365 454 344 460 b 283 436 308 460 292 454 b 335 379 271 410 296 385 b 350 378 339 378 344 378 l 354 378 b 422 392 375 378 403 383 z m 588 396 b 425 261 549 317 468 261 b 421 388 375 261 385 326 b 397 381 413 385 404 382 b 415 253 361 318 356 253 b 594 393 478 253 556 314 b 588 396 597 397 590 401 z m 458 657 l 467 654 l 469 667 b 471 668 469 668 471 668 l 489 685 l 481 688 b 468 674 476 683 471 678 b 465 693 468 678 467 686 l 457 694 l 463 671 b 463 669 463 669 463 669 z m 508 653 b 525 657 514 649 521 650 b 518 672 528 663 525 669 l 504 679 l 489 646 l 496 643 l 501 656 z m 554 628 l 546 615 l 551 610 l 572 640 l 565 644 l 557 633 l 546 640 l 553 653 l 547 657 l 526 628 l 533 622 l 542 636 z m 571 608 b 574 590 567 604 567 597 b 592 589 581 585 588 585 b 590 606 596 593 596 597 b 588 614 588 611 586 613 b 594 614 590 617 592 617 b 596 607 597 611 597 608 l 601 601 b 599 618 604 606 606 611 b 582 619 592 624 586 624 b 583 603 579 615 578 611 b 586 594 588 599 588 596 b 578 594 583 592 582 592 b 576 604 575 597 575 600 z m 638 574 l 610 553 l 614 546 l 643 568 z m 643 531 b 642 521 644 524 644 522 b 635 524 639 519 638 519 b 636 532 633 526 633 531 l 632 539 b 629 521 626 535 625 529 b 646 514 635 513 640 511 b 650 531 651 517 653 521 b 650 539 649 536 649 538 b 657 538 653 540 654 540 b 656 529 658 533 657 531 l 660 522 b 661 540 664 525 667 532 b 646 546 657 547 651 549 b 643 531 642 543 640 539 z m 665 471 b 681 476 671 472 678 475 b 658 454 678 472 664 460 l 661 444 l 696 456 l 693 463 l 683 458 b 668 454 678 457 672 456 b 689 475 671 457 683 469 l 686 485 l 653 474 l 654 468 z m 682 432 b 667 413 672 431 665 424 b 688 397 668 401 678 396 b 703 417 697 399 704 407 b 682 432 701 428 693 433 z m 699 372 l 669 372 l 669 365 l 699 364 l 699 354 l 704 354 l 706 383 l 699 383 z "},"\u0000":{"ha":0,"x_min":0,"x_max":0,"o":""},"\r":{"ha":347,"x_min":0,"x_max":0,"o":""}," ":{"ha":553,"x_min":0,"x_max":0,"o":""},"!":{"ha":374,"x_min":0,"x_max":0,"o":"m 397 999 b 115 -10 281 750 44 65 b 181 -35 129 -25 157 -35 b 229 7 206 -35 228 -24 b 529 974 240 288 411 706 b 492 1033 539 994 529 1018 b 457 1042 483 1036 471 1042 b 397 999 438 1042 414 1032 z m 97 -178 b 171 -250 97 -218 129 -250 b 244 -178 211 -250 244 -218 b 171 -104 244 -137 211 -104 b 97 -178 129 -104 97 -137 z "},"\"":{"ha":567,"x_min":0,"x_max":0,"o":"m 183 775 b 183 758 168 775 168 758 b 333 1004 335 758 333 922 b 283 1024 333 1018 308 1024 b 233 1004 258 1024 233 1018 b 183 775 233 928 257 775 z m 350 775 b 350 758 335 775 335 758 b 500 1004 501 758 500 922 b 450 1024 500 1018 475 1024 b 400 1004 425 1024 400 1018 b 350 775 400 928 424 775 z "},"#":{"ha":897,"x_min":0,"x_max":0,"o":"m 372 671 l 521 671 l 489 513 l 340 513 z m 242 200 b 256 181 239 192 246 182 b 275 194 264 178 274 185 l 333 478 l 482 478 l 426 200 b 440 181 424 192 431 182 b 460 194 449 178 458 185 l 518 478 l 682 478 b 700 494 692 478 700 485 b 682 513 700 504 692 513 l 525 513 l 557 671 l 725 671 b 743 688 735 671 743 678 b 725 706 743 697 735 706 l 564 706 l 604 907 b 590 926 607 915 600 925 b 571 913 582 929 572 922 l 528 706 l 379 706 l 419 907 b 406 926 422 915 415 925 b 386 913 397 929 388 922 l 343 706 l 193 706 b 176 688 183 706 176 697 b 193 671 176 678 183 671 l 336 671 l 304 513 l 150 513 b 133 494 140 513 133 504 b 150 478 133 485 140 478 l 297 478 z "},"$":{"ha":794,"x_min":0,"x_max":0,"o":"m 319 86 b 411 461 333 200 368 331 b 319 86 731 322 542 117 z m 453 938 b 344 658 421 861 382 763 b 453 938 242 768 293 901 z m 468 971 b 296 513 129 935 11 671 b 189 92 243 351 200 193 b 169 315 107 121 54 215 b 168 364 185 329 185 350 b 140 372 160 369 150 372 b 111 363 131 372 119 369 b 186 63 -25 242 47 96 b 199 -10 185 26 188 1 b 264 -35 213 -25 240 -35 b 313 7 289 -35 311 -24 b 315 56 313 22 314 39 b 514 553 640 86 858 424 b 453 579 492 561 471 571 b 594 933 499 707 550 829 b 550 743 681 894 654 779 b 531 699 531 736 522 715 b 567 681 538 686 551 681 b 583 683 572 681 578 682 b 607 961 729 736 751 911 b 613 974 608 965 611 969 b 575 1033 622 994 613 1018 b 540 1042 567 1036 554 1042 b 468 971 499 1042 482 1004 z "},"%":{"ha":736,"x_min":0,"x_max":0,"o":"m 433 236 b 536 386 433 324 483 386 b 639 236 588 386 639 324 b 536 86 639 147 588 86 b 433 236 483 86 433 147 z m 86 789 b 189 939 86 876 136 939 b 292 789 240 939 292 876 b 189 639 292 700 240 639 b 86 789 136 639 86 700 z m 556 989 b 536 1011 561 1001 549 1011 b 524 1003 531 1011 526 1008 l 522 1003 l 89 35 b 99 11 86 25 90 15 b 122 21 108 8 118 13 l 446 743 b 490 411 422 589 446 461 b 399 236 435 385 399 313 b 536 51 399 139 456 51 b 674 236 615 51 674 139 b 536 421 674 332 615 421 b 532 935 482 421 424 657 z m 51 789 b 189 604 51 692 108 604 b 326 789 268 604 326 692 b 189 974 326 885 268 974 b 51 789 108 974 51 885 z "},"&":{"ha":1017,"x_min":0,"x_max":0,"o":"m 394 532 b 543 206 424 424 472 311 b 286 39 474 113 379 39 b 351 549 139 39 175 403 b 393 599 367 561 386 579 l 396 597 b 394 532 389 578 389 551 z m 501 656 b 569 1010 463 828 489 986 b 615 1017 586 1015 601 1017 b 501 656 758 1017 704 761 z m 640 82 b 765 -35 678 40 721 1 b 785 -40 771 -39 778 -40 b 885 81 839 -40 931 49 b 715 232 819 124 764 176 b 772 535 771 328 789 439 b 714 579 768 565 742 579 b 642 508 675 579 632 551 b 625 354 653 465 644 411 b 508 624 569 443 532 536 b 614 1047 756 747 797 1047 b 567 1042 600 1047 583 1046 b 378 613 403 1004 343 825 b 278 4 -1 511 -96 4 b 579 89 403 4 503 36 b 614 142 596 100 613 121 l 617 142 b 640 82 615 121 626 97 z "},"'":{"ha":313,"x_min":0,"x_max":0,"o":"m 104 775 b 104 758 89 775 89 758 b 254 1004 256 758 254 922 b 204 1024 254 1018 229 1024 b 154 1004 179 1024 154 1018 b 104 775 154 928 178 775 z "},"(":{"ha":428,"x_min":0,"x_max":0,"o":"m 444 1014 b 122 446 324 1014 192 676 b 121 -235 39 164 -32 -235 b 139 -217 131 -235 139 -226 b 121 -200 139 -207 131 -200 b 188 426 94 -200 10 -176 b 444 979 233 582 351 979 b 463 996 454 979 463 986 b 444 1014 463 1006 454 1014 z "},")":{"ha":417,"x_min":0,"x_max":0,"o":"m 3 -235 b 333 332 121 -235 260 82 b 326 1014 419 624 476 1014 b 310 996 317 1014 310 1006 b 326 979 310 986 317 979 b 235 361 426 979 299 574 b 3 -200 167 129 85 -200 b -15 -217 -7 -200 -15 -207 b 3 -235 -15 -226 -7 -235 z "},"*":{"ha":765,"x_min":0,"x_max":0,"o":"m 403 756 l 543 615 b 568 615 550 608 561 608 b 568 640 575 622 575 633 l 428 781 l 568 921 b 568 946 575 928 575 939 b 543 946 561 953 550 953 l 421 822 l 421 983 b 403 1001 421 993 413 1001 b 386 983 393 1001 386 993 l 386 822 l 263 946 b 238 946 256 953 244 953 b 238 921 231 939 231 928 l 378 781 l 238 640 b 238 615 231 633 231 622 b 263 615 244 608 256 608 z "},"+":{"ha":640,"x_min":0,"x_max":0,"o":"m 329 540 b 311 558 329 550 321 558 b 294 540 301 558 294 550 l 294 397 l 94 397 b 78 379 85 397 78 389 b 94 363 78 369 85 363 l 294 363 l 294 213 b 311 196 294 203 301 196 b 329 213 321 196 329 203 l 329 363 l 529 363 b 547 379 539 363 547 369 b 529 397 547 389 539 397 l 329 397 z "},",":{"ha":372,"x_min":0,"x_max":0,"o":"m 158 104 b 169 -57 158 18 214 21 b 306 104 150 -92 306 18 b 232 178 306 144 272 178 b 158 104 190 178 158 144 z "},"-":{"ha":610,"x_min":0,"x_max":0,"o":"m 94 363 l 529 363 b 547 379 539 363 547 369 b 529 397 547 389 539 397 l 94 397 b 78 379 85 397 78 389 b 94 363 78 369 85 363 z "},".":{"ha":372,"x_min":0,"x_max":0,"o":"m 201 82 b 275 10 201 42 233 10 b 349 82 315 10 349 42 b 275 156 349 122 315 156 b 201 82 233 156 201 122 z "},"/":{"ha":517,"x_min":0,"x_max":0,"o":"m -128 -267 b -118 -290 -131 -276 -126 -286 b -94 -281 -108 -293 -99 -289 b 546 1138 74 147 376 710 b 536 1161 549 1147 544 1157 b 513 1151 526 1164 517 1160 b -128 -267 344 724 42 161 z "},":":{"ha":372,"x_min":0,"x_max":0,"o":"m 158 683 b 232 611 158 643 190 611 b 306 683 272 611 306 643 b 232 757 306 724 272 757 b 158 683 190 757 158 724 z m 158 96 b 232 24 158 56 190 24 b 306 96 272 24 306 56 b 232 169 306 136 272 169 b 158 96 190 169 158 136 z "},";":{"ha":372,"x_min":0,"x_max":0,"o":"m 158 683 b 232 611 158 643 190 611 b 306 683 272 611 306 643 b 232 757 306 724 272 757 b 158 683 190 757 158 724 z m 158 104 b 169 -57 158 18 214 21 b 306 104 150 -92 306 18 b 232 178 306 144 272 178 b 158 104 190 178 158 144 z "},"<":{"ha":794,"x_min":0,"x_max":0,"o":"m 729 281 l 161 543 l 729 803 b 738 825 738 807 742 817 b 715 833 733 833 724 838 l 113 558 b 113 528 97 553 97 533 l 715 250 b 738 258 724 246 733 249 b 729 281 742 267 739 276 z "},"=":{"ha":794,"x_min":0,"x_max":0,"o":"m 222 363 l 657 363 b 675 379 667 363 675 369 b 657 397 675 389 667 397 l 222 397 b 206 379 213 397 206 389 b 222 363 206 369 213 363 z m 222 681 b 206 663 213 681 206 672 b 222 646 206 653 213 646 l 657 646 b 675 663 667 646 675 653 b 657 681 675 672 667 681 z "},">":{"ha":794,"x_min":0,"x_max":0,"o":"m 113 803 l 681 543 l 113 281 b 104 258 103 276 100 267 b 126 250 108 249 118 246 l 729 528 b 729 558 744 533 744 553 l 126 833 b 104 825 118 838 108 833 b 113 803 100 817 104 807 z "},"?":{"ha":603,"x_min":0,"x_max":0,"o":"m 242 14 b 785 871 396 614 893 485 b 546 1025 756 974 661 1025 b 169 871 426 1025 286 972 b 154 706 101 811 124 706 b 168 713 160 706 164 708 b 625 922 300 849 496 922 b 757 857 696 922 746 900 b 156 39 803 672 281 588 b 196 -17 147 0 171 -17 b 242 14 217 -17 236 -6 z m 97 -178 b 171 -250 97 -218 129 -250 b 244 -178 211 -250 244 -218 b 171 -104 244 -137 211 -104 b 97 -178 129 -104 97 -137 z "},"@":{"ha":1124,"x_min":0,"x_max":0,"o":"m 504 -129 b 522 -111 514 -129 522 -121 b 504 -94 522 -101 514 -94 b 803 985 -192 -94 214 985 b 768 194 1279 985 1013 168 b 843 631 626 210 796 521 b 790 697 861 672 826 697 b 731 665 767 697 743 688 b 681 563 721 657 686 579 b 399 250 575 363 472 258 b 601 632 335 250 506 632 b 607 632 603 632 606 632 b 613 563 625 629 625 597 b 624 540 610 554 614 544 b 646 551 632 538 642 542 b 575 676 675 629 636 676 b 365 521 514 676 431 631 b 379 211 258 340 288 211 b 633 418 442 211 535 272 b 765 160 603 269 640 160 b 803 1019 1053 160 1325 1019 b 504 -129 168 1019 -243 -129 z "},"A":{"ha":942,"x_min":0,"x_max":0,"o":"m 853 950 b 661 451 768 754 704 589 b 486 493 611 457 550 475 b 832 968 607 692 722 890 b 890 1017 850 982 875 999 l 893 1014 b 853 950 878 997 863 971 z m 638 375 b 676 -15 569 136 578 6 b 685 -18 678 -17 683 -18 b 719 -21 696 -19 708 -21 b 963 185 822 -21 906 57 b 954 207 967 193 963 204 b 932 199 946 211 935 207 b 689 17 871 63 785 1 l 688 17 b 1000 965 599 40 829 553 b 938 1040 1017 1006 978 1038 b 879 1046 919 1044 900 1046 b 447 782 697 1046 419 913 b 479 758 450 765 464 758 b 511 793 499 758 518 771 b 790 1003 489 910 640 978 b 864 1022 813 1007 842 1014 l 865 1021 b 797 983 843 1011 815 997 b 451 503 683 889 568 693 b 288 529 396 517 339 529 b 158 488 238 529 193 518 b 171 431 128 461 149 431 b 188 436 176 431 182 432 b 339 485 231 468 282 485 b 388 481 356 485 371 483 b 421 478 397 479 408 478 b 460 485 435 478 449 479 l 461 482 b 408 432 440 474 421 451 b 0 18 272 213 136 18 b -18 0 -10 18 -18 10 b 0 -18 -18 -10 -10 -18 b 468 463 161 -18 318 217 b 606 426 515 449 561 435 b 676 436 628 421 657 424 l 678 433 b 638 375 658 421 643 397 z "},"B":{"ha":704,"x_min":0,"x_max":0,"o":"m 297 740 b 396 974 332 824 365 904 b 329 1039 413 1013 371 1039 b 265 1003 303 1039 276 1029 b -18 -10 150 758 -94 60 b 46 -37 -8 -26 21 -37 b 96 7 74 -37 99 -25 b 97 11 97 8 97 10 b 97 15 97 13 97 14 b 149 296 104 110 125 204 b 638 1010 281 726 513 1010 b 428 503 714 1010 519 543 b 424 501 426 503 425 503 b 411 501 419 501 415 501 b 408 467 392 501 390 469 b 417 467 411 467 414 467 b 354 35 592 453 535 35 b 308 43 339 35 324 38 b 283 265 182 89 232 249 b 294 288 292 268 297 278 b 272 299 292 296 282 301 b 282 8 193 274 143 85 b 397 -24 322 -14 361 -24 b 564 474 628 -24 754 372 b 483 486 542 485 508 488 l 483 489 b 560 515 508 490 539 501 b 664 1047 761 658 879 1047 b 271 674 501 1047 339 808 l 268 674 b 297 740 278 694 290 719 z "},"C":{"ha":985,"x_min":0,"x_max":0,"o":"m 549 783 b 807 1007 631 918 726 1011 b 863 868 872 994 903 940 b 549 783 813 779 689 779 z m 576 749 b 893 851 714 744 838 751 b 771 1044 954 960 886 1044 b 393 786 665 1044 521 975 b 21 592 240 783 92 753 b 29 569 17 583 21 572 b 51 578 38 565 49 569 b 371 751 113 714 235 746 b 367 744 369 749 368 747 b 357 -42 175 426 121 94 b 571 -94 417 -76 492 -94 b 1006 185 738 -94 919 -11 b 997 207 1010 193 1006 204 b 975 199 989 211 978 207 b 571 -60 894 17 725 -60 b 483 -51 540 -60 511 -57 b 504 707 267 6 350 414 b 510 779 515 729 522 758 l 511 781 b 576 749 524 760 551 749 z "},"D":{"ha":790,"x_min":0,"x_max":0,"o":"m 383 746 b 479 974 417 828 449 906 b 413 1039 496 1013 454 1039 b 349 1003 386 1039 360 1029 b 65 -10 233 758 -11 60 b 129 -37 76 -26 103 -37 b 179 7 157 -37 182 -25 b 181 11 181 8 181 10 b 181 15 181 13 181 14 b 232 296 188 110 208 204 b 740 1013 336 656 568 1003 b 371 56 843 996 572 56 b 346 61 363 56 354 57 b 363 265 265 96 307 261 b 378 283 372 265 379 274 b 360 299 378 293 369 300 b 342 11 264 294 214 58 b 425 -8 369 -3 397 -8 b 747 1047 778 -8 1017 1047 b 390 742 632 1047 501 921 b 351 668 376 721 363 690 l 349 669 b 383 746 360 692 374 722 z "},"E":{"ha":879,"x_min":0,"x_max":0,"o":"m 594 892 b 729 1021 615 960 679 1021 b 749 1018 736 1021 743 1021 b 753 1017 750 1018 751 1018 b 767 935 785 1001 792 974 b 594 892 744 897 679 893 z m 797 915 b 688 1064 858 1013 782 1064 b 469 890 590 1064 474 1008 b 3 633 303 883 108 847 b 10 610 -1 624 1 614 b 33 617 19 606 29 608 b 474 856 133 817 313 849 b 597 731 485 808 524 763 b 497 710 561 726 528 719 b 256 -71 0 592 -46 100 b 443 -117 307 -100 372 -117 b 900 185 610 -117 803 -26 b 892 207 904 193 900 204 b 869 199 883 211 872 207 b 496 -74 772 -12 601 -74 b 453 -69 479 -74 465 -72 b 571 690 136 -11 107 600 b 693 701 610 696 650 700 b 710 718 704 700 710 710 b 697 735 710 726 706 733 b 593 808 639 749 606 775 b 558 879 583 832 578 863 l 560 881 b 628 858 578 865 604 858 b 797 915 682 858 767 865 z "},"F":{"ha":535,"x_min":0,"x_max":0,"o":"m 315 529 b 271 394 300 483 286 439 b 315 625 221 375 178 536 b 315 529 318 592 318 558 z m 340 690 b 147 910 317 796 260 890 b 490 988 190 947 331 979 b 376 704 458 918 418 815 b 340 690 364 700 351 696 z m 350 629 b 349 643 349 635 349 639 b 356 647 350 644 353 646 z m 681 985 b 1001 893 803 974 921 946 b 1019 888 1007 890 1014 888 b 1049 904 1032 888 1042 893 b 1039 951 1058 919 1054 940 b 594 1051 931 1021 761 1051 b 92 908 369 1051 150 997 b 104 882 83 896 90 882 b 308 674 231 874 288 778 b 261 357 129 569 172 358 b 214 -11 208 174 179 19 b 276 -37 225 -28 251 -37 b 328 7 304 -37 331 -25 b 507 681 342 199 421 453 b 804 650 585 685 682 676 b 833 669 818 647 831 656 b 815 699 836 683 828 696 b 526 729 701 724 606 733 b 614 942 556 806 586 878 b 613 1017 624 965 625 994 l 614 1018 b 681 985 628 997 656 986 z "},"G":{"ha":1011,"x_min":0,"x_max":0,"o":"m 701 794 b 740 790 715 792 728 790 b 822 1039 890 790 972 1007 b 776 1043 808 1042 793 1043 b 367 746 661 1043 500 963 l 367 744 b 388 -57 175 426 107 65 b 504 -81 424 -72 464 -81 b 813 82 611 -81 725 -25 b 797 -101 799 25 790 -36 b 815 -117 797 -111 806 -118 b 831 -99 825 -117 832 -108 b 899 250 818 31 871 143 b 906 283 901 261 903 272 b 906 288 906 285 906 286 b 739 432 922 385 832 432 b 553 322 657 432 572 396 b 586 268 543 286 565 268 b 624 299 603 268 619 278 b 763 396 635 364 700 396 b 872 289 826 396 886 361 b 532 -47 842 133 703 -47 b 499 -44 521 -47 510 -46 b 806 1007 136 18 551 1018 b 814 1006 808 1007 811 1006 b 738 825 925 982 849 825 b 710 828 728 825 719 825 b 689 815 700 831 690 825 b 701 794 686 806 692 796 z "},"H":{"ha":826,"x_min":0,"x_max":0,"o":"m 638 382 b 582 -10 581 189 547 22 b 646 -37 592 -26 621 -37 b 696 7 674 -37 699 -25 b 808 493 706 147 751 321 b 810 496 808 494 810 494 b 811 504 811 499 811 501 b 996 974 869 674 938 842 b 929 1039 1013 1013 971 1039 b 865 1003 903 1039 876 1029 b 661 463 811 886 726 668 b 413 503 592 463 503 485 b 597 974 469 674 539 842 b 531 1039 614 1013 572 1039 b 467 1003 504 1039 478 1029 b 283 524 417 899 344 710 b 225 526 264 525 243 526 b 18 425 136 526 61 503 b 25 401 14 417 17 406 b 49 408 33 397 44 400 b 224 493 85 472 147 492 b 300 511 249 493 279 497 l 301 510 b 257 443 281 494 265 468 b 183 -10 189 225 144 25 b 247 -37 193 -26 222 -37 b 297 7 275 -37 300 -25 b 401 469 307 140 349 306 b 603 432 471 457 540 440 b 679 450 628 429 658 436 l 681 447 b 638 382 660 433 644 407 z "},"I":{"ha":372,"x_min":0,"x_max":0,"o":"m 175 706 b 196 693 176 697 186 690 b 208 714 204 694 211 704 b 397 999 188 810 289 960 b 115 -10 281 750 39 60 b 179 -37 126 -26 153 -37 b 229 7 207 -37 232 -25 b 529 974 249 288 411 706 b 514 1024 539 994 531 1013 b 508 1028 513 1025 511 1026 b 479 1038 500 1033 489 1036 b 447 1042 468 1040 457 1042 b 175 706 301 1042 147 836 z "},"J":{"ha":613,"x_min":0,"x_max":0,"o":"m 185 399 b 206 -22 -15 328 -29 -22 b 246 -19 218 -22 232 -22 b 747 969 600 33 642 667 b 646 1040 771 1035 694 1044 b 342 685 463 1029 229 840 b 365 681 347 676 358 675 b 369 704 374 686 375 697 b 613 1003 283 824 460 974 b 207 15 522 710 442 40 b 207 329 46 -3 -8 260 b 185 399 261 346 226 414 z "},"K":{"ha":860,"x_min":0,"x_max":0,"o":"m 858 939 b 818 975 858 963 838 975 b 782 936 797 975 778 963 b 326 446 803 781 613 426 b 529 974 386 635 464 826 b 463 1039 546 1013 504 1039 b 399 1003 436 1039 410 1029 b 115 -10 283 758 39 60 b 179 -37 126 -26 153 -37 b 229 7 207 -37 232 -25 b 303 368 238 114 264 239 b 642 -37 375 114 510 -37 b 882 185 731 -37 817 32 b 872 208 885 194 881 204 b 849 199 863 211 853 207 b 640 -1 790 60 715 -1 b 326 411 515 -1 389 164 b 858 939 626 385 858 808 z "},"L":{"ha":728,"x_min":0,"x_max":0,"o":"m 79 -12 b 75 -36 71 -18 69 -28 b 99 -40 81 -44 90 -46 b 382 14 151 -6 269 14 b 640 -42 493 14 600 -4 b 664 -40 647 -49 657 -49 b 663 -17 671 -33 671 -24 b 406 50 610 32 510 50 b 232 35 346 50 285 44 b 529 974 258 314 415 714 b 463 1039 546 1013 504 1039 b 399 1003 436 1039 410 1029 b 107 1 288 768 58 117 b 79 -12 96 -3 86 -7 z "},"M":{"ha":1126,"x_min":0,"x_max":0,"o":"m 561 890 b 629 228 547 594 551 392 b 644 218 632 221 638 218 b 661 235 653 218 663 224 b 1065 853 660 347 917 660 b 846 -10 943 549 782 49 b 910 -37 857 -26 883 -37 b 960 7 938 -37 963 -25 b 1260 974 979 288 1142 706 b 1193 1040 1276 1013 1235 1040 b 1132 1008 1169 1040 1144 1031 b 1129 1004 1131 1007 1131 1006 b 639 294 1071 894 704 485 b 599 979 581 454 583 665 b 531 1039 610 1014 571 1039 b 467 1003 504 1039 478 1029 b 183 -10 351 758 107 60 b 247 -37 193 -26 222 -37 b 297 7 275 -37 300 -25 b 561 890 315 261 449 625 z "},"N":{"ha":922,"x_min":0,"x_max":0,"o":"m 183 -10 b 247 -37 193 -26 222 -37 b 297 7 275 -37 300 -25 b 563 892 315 261 449 626 b 631 13 550 568 560 186 b 639 -7 632 4 635 -1 b 646 -15 640 -11 643 -12 b 704 -37 657 -29 682 -37 b 756 7 732 -37 758 -25 b 1056 974 775 288 938 706 b 989 1039 1072 1013 1031 1039 b 925 1003 963 1039 936 1029 b 633 121 836 814 669 351 b 600 979 588 333 585 688 b 531 1039 611 1014 571 1039 b 467 1003 504 1039 478 1029 b 183 -10 351 758 107 60 z "},"O":{"ha":1085,"x_min":0,"x_max":0,"o":"m 546 783 b 807 1007 632 917 729 1011 b 863 868 872 994 903 940 b 546 783 813 779 688 779 z m 574 749 b 893 851 713 744 838 751 b 771 1044 954 960 886 1044 b 393 786 665 1044 521 975 b 21 592 240 783 92 753 b 29 569 17 583 21 572 b 51 578 38 565 49 569 b 371 751 113 714 235 746 b 367 744 369 749 368 747 b 358 -43 175 426 101 60 b 482 -67 400 -60 442 -67 l 492 -67 b 974 989 926 -44 1231 908 b 951 978 964 992 954 986 b 963 956 949 968 954 958 b 460 -31 1176 888 878 -61 b 500 707 243 8 339 415 b 507 781 513 729 519 758 l 510 782 b 574 749 521 760 549 749 z "},"P":{"ha":663,"x_min":0,"x_max":0,"o":"m 206 460 b 638 1010 318 742 494 982 b 293 456 713 1010 596 499 b 206 460 265 456 236 457 z m -18 -10 b 46 -37 -8 -26 21 -37 b 96 7 74 -37 99 -25 b 97 11 97 8 97 10 l 97 15 b 192 424 107 154 143 294 b 250 418 211 419 231 418 b 300 422 267 418 283 419 b 664 1047 783 439 903 1047 b 282 700 540 1047 397 901 b 396 974 321 799 360 893 b 329 1039 413 1013 371 1039 b 265 1003 303 1039 276 1029 b -18 -10 150 758 -94 60 z "},"Q":{"ha":1085,"x_min":0,"x_max":0,"o":"m 546 783 b 807 1007 632 917 729 1011 b 863 868 872 994 903 940 b 546 783 813 779 688 779 z m 574 749 b 893 851 713 744 838 751 b 771 1044 954 960 886 1044 b 393 786 665 1044 521 975 b 21 592 240 783 92 753 b 29 569 17 583 21 572 b 51 578 38 565 49 569 b 371 751 113 714 235 746 b 367 744 369 749 368 747 b 358 -43 175 426 101 60 b 482 -67 400 -60 442 -67 l 492 -67 b 694 13 564 -62 632 -33 b 925 -233 813 -44 908 -133 b 944 -247 926 -243 935 -249 b 958 -228 954 -246 960 -237 b 736 46 940 -119 850 -21 b 974 989 1026 304 1178 925 b 951 978 964 992 954 986 b 963 956 949 968 954 958 b 704 64 1132 903 982 300 b 440 133 619 107 525 133 b 411 103 424 133 411 119 b 440 74 411 86 424 74 b 658 28 511 74 588 57 b 460 -31 597 -14 531 -36 b 500 707 243 8 339 415 b 507 781 513 729 519 758 l 510 782 b 574 749 521 760 549 749 z "},"R":{"ha":864,"x_min":0,"x_max":0,"o":"m 206 460 b 638 1010 318 742 494 982 b 293 456 713 1010 596 499 b 206 460 265 456 236 457 z m -18 -10 b 46 -37 -8 -26 21 -37 b 96 7 74 -37 99 -25 b 97 11 97 8 97 10 l 97 15 b 188 415 106 150 142 289 b 792 -39 283 276 488 -67 b 788 33 831 -35 829 38 b 228 419 517 10 328 269 b 300 422 253 418 276 418 b 664 1047 783 439 903 1047 b 282 700 540 1047 397 901 b 396 974 321 799 360 893 b 329 1039 413 1013 371 1039 b 265 1003 303 1039 276 1029 b -18 -10 150 758 -94 60 z "},"S":{"ha":763,"x_min":0,"x_max":0,"o":"m 560 714 b 506 1072 797 826 738 1072 b 432 1065 482 1072 458 1071 b 381 467 132 1007 -28 653 b 226 -1 790 278 486 -31 b 169 278 126 11 38 139 b 168 335 185 293 185 319 b 140 346 160 342 150 346 b 111 333 129 346 119 342 b 224 -35 -37 176 61 -17 b 269 -37 239 -36 254 -37 b 514 563 615 -37 876 400 b 486 1031 203 703 239 996 b 526 785 688 1058 706 871 b 507 732 507 775 499 751 b 543 710 514 718 528 710 b 560 714 549 710 554 711 z "},"T":{"ha":517,"x_min":0,"x_max":0,"o":"m 392 746 b 213 933 396 860 354 940 b 482 968 279 953 376 965 b 392 746 456 910 424 832 z m 674 963 b 988 872 794 951 908 924 b 1015 864 996 867 1006 864 b 1058 888 1032 864 1049 872 b 1043 958 1074 911 1067 943 b 603 1058 936 1028 769 1058 b 92 908 378 1058 154 1001 b 110 882 82 894 93 878 b 229 900 157 894 196 900 b 315 529 368 900 390 790 b 214 -11 232 279 168 29 b 276 -37 225 -28 251 -37 b 328 7 304 -37 331 -25 b 606 922 346 271 490 654 b 606 996 615 944 619 975 l 608 997 b 674 963 621 976 649 965 z "},"U":{"ha":878,"x_min":0,"x_max":0,"o":"m 899 185 b 890 207 903 193 899 204 b 868 199 882 211 871 207 b 653 14 813 76 738 14 b 624 17 644 14 635 15 b 936 965 535 40 765 553 b 869 1040 953 1007 910 1040 b 811 1003 846 1040 822 1029 b 803 983 808 996 806 989 b 800 979 801 982 801 981 b 182 15 569 419 361 15 b 163 17 175 15 169 15 l 161 17 b 474 965 72 40 303 553 b 407 1040 490 1007 447 1040 b 349 1003 383 1040 360 1029 b 150 -15 72 364 -15 21 b 158 -18 151 -17 157 -18 b 588 425 292 -39 428 114 b 613 -15 504 154 507 7 b 621 -18 614 -17 619 -18 b 656 -21 632 -19 644 -21 b 899 185 758 -21 842 57 z "},"V":{"ha":710,"x_min":0,"x_max":0,"o":"m 743 960 b 725 975 743 969 735 976 b 710 957 715 975 708 967 b 243 15 729 611 456 15 b 226 17 238 15 232 15 l 225 17 b 383 965 138 39 157 429 b 311 1038 400 1006 354 1038 b 253 1003 288 1038 264 1028 b 214 -15 4 404 39 22 b 222 -18 215 -17 221 -18 b 743 960 472 -56 765 596 z "},"W":{"ha":1194,"x_min":0,"x_max":0,"o":"m 1254 960 b 1236 975 1254 969 1246 976 b 1221 957 1226 975 1219 967 b 754 15 1240 611 967 15 b 738 17 749 15 743 15 l 736 17 b 771 592 640 42 624 332 b 703 665 793 632 747 665 b 643 632 679 665 656 656 b 569 450 610 568 586 507 b 232 17 442 149 346 17 b 225 17 229 17 228 17 b 383 965 138 39 157 429 b 311 1038 400 1006 354 1038 b 253 1003 288 1038 264 1028 b 215 -17 4 403 35 3 l 217 -17 b 225 -17 219 -18 222 -18 b 543 304 343 -22 439 89 b 725 -15 532 125 613 7 b 733 -18 726 -17 732 -18 b 1254 960 983 -56 1276 596 z "},"X":{"ha":929,"x_min":0,"x_max":0,"o":"m 951 185 b 942 208 954 194 950 204 b 918 199 932 211 922 207 b 703 18 875 93 792 18 b 468 481 644 19 544 163 b 783 988 633 647 793 826 b 765 1003 783 997 775 1004 b 750 985 756 1003 749 994 b 460 519 757 840 615 678 b 388 1018 429 656 404 821 b 325 1064 386 1049 356 1064 b 261 1015 292 1064 260 1047 b 354 414 274 763 308 565 b 90 -4 196 256 58 108 b 111 -17 93 -14 103 -19 b 124 4 121 -14 126 -4 b 367 376 97 97 219 229 b 701 -18 464 88 604 -18 b 951 185 813 -17 906 75 z "},"Y":{"ha":613,"x_min":0,"x_max":0,"o":"m 185 399 b 243 -19 -25 321 -14 -19 b 747 969 533 -19 647 665 b 692 1042 763 1018 729 1042 b 615 994 663 1042 629 1026 b 614 992 615 993 614 993 b 263 489 546 822 374 485 b 388 964 197 507 272 743 b 324 1038 410 1006 367 1038 b 264 1004 300 1038 276 1028 b 253 456 147 783 82 481 b 254 456 253 456 253 456 b 261 456 257 454 260 454 b 551 774 360 450 472 625 b 243 17 460 457 332 17 b 196 365 22 17 25 301 b 207 388 206 369 210 379 b 185 399 203 397 193 401 z "},"Z":{"ha":1090,"x_min":0,"x_max":0,"o":"m 136 24 b 586 485 110 103 383 317 b 1085 928 954 790 978 818 b 1092 944 1086 931 1092 942 b 789 1040 1097 1010 951 1040 b 388 961 629 1040 453 1011 b 411 826 328 913 357 826 b 442 836 421 826 431 829 b 957 961 550 904 815 961 b 1040 949 996 961 1025 958 b 542 538 976 888 683 654 b 118 -12 139 203 54 57 b 358 -74 157 -54 249 -74 b 1018 247 625 -74 1004 43 b 936 319 1022 294 979 319 b 851 250 894 319 853 297 b 224 -3 843 132 414 -3 b 139 21 181 -3 149 4 b 136 24 138 22 138 24 z "},"[":{"ha":457,"x_min":0,"x_max":0,"o":"m 156 -17 l 72 -17 l 465 979 l 542 979 b 560 996 551 979 560 986 b 542 1014 560 1006 551 1014 l 454 1014 b 438 1003 449 1014 440 1008 l 31 -26 b 47 -51 26 -39 35 -51 l 156 -51 b 174 -33 165 -51 174 -43 b 156 -17 174 -24 165 -17 z "},"\\":{"ha":517,"x_min":0,"x_max":0,"o":"m 64 1003 b 40 1013 60 1011 50 1015 b 31 989 32 1008 28 999 l 438 -40 b 461 -50 442 -49 451 -53 b 471 -26 469 -46 474 -36 z "},"]":{"ha":457,"x_min":0,"x_max":0,"o":"m 426 979 l 517 979 l 124 -17 l 47 -17 b 31 -33 38 -17 31 -24 b 47 -51 31 -43 38 -51 l 135 -51 b 151 -40 140 -51 149 -46 l 558 989 b 542 1014 563 1001 554 1014 l 426 1014 b 410 996 417 1014 410 1006 b 426 979 410 986 417 979 z "},"^":{"ha":794,"x_min":0,"x_max":0,"o":"m 121 396 b 129 374 117 388 119 378 b 151 382 138 369 147 372 l 414 950 l 674 382 b 696 374 678 374 688 369 b 704 396 704 378 708 388 l 429 999 b 399 999 424 1014 404 1014 z "},"_":{"ha":617,"x_min":0,"x_max":0,"o":"m 58 -179 l 592 -179 b 610 -161 601 -179 610 -171 b 592 -144 610 -151 601 -144 l 58 -144 b 42 -161 49 -144 42 -151 b 58 -179 42 -171 49 -179 z "},"`":{"ha":390,"x_min":0,"x_max":0,"o":"m 289 842 b 289 876 301 842 301 876 b 172 1061 238 876 172 967 b 131 1082 172 1075 151 1082 b 89 1061 110 1082 89 1075 b 289 842 89 967 194 842 z "},"a":{"ha":679,"x_min":0,"x_max":0,"o":"m 311 136 b 442 -18 318 32 379 -18 b 701 185 531 -18 651 61 b 692 208 706 194 701 204 b 668 199 682 213 672 208 b 454 10 625 93 525 10 b 550 492 350 10 435 271 b 486 565 572 533 529 565 b 426 532 463 565 439 556 b 349 350 396 475 369 413 b 126 18 276 179 201 18 b 313 524 -8 18 239 526 b 315 443 336 522 336 482 b 322 419 310 433 313 424 b 346 426 332 414 342 417 b 326 556 376 486 361 536 b 282 567 314 563 299 567 b 65 396 221 567 136 518 b 99 -18 -40 215 -57 -18 b 290 142 181 -18 238 47 b 319 219 301 164 314 194 l 322 218 b 311 136 317 194 310 161 z "},"b":{"ha":658,"x_min":0,"x_max":0,"o":"m 243 10 b 328 167 97 10 210 167 b 361 163 339 167 350 165 b 243 10 322 75 288 10 z m 124 215 b 390 974 181 469 299 767 b 324 1039 407 1013 365 1039 b 260 1003 297 1039 271 1029 b -24 -11 144 760 -100 60 b 36 -35 -14 -28 11 -35 b 93 -6 65 -35 92 -25 b 428 532 176 269 292 532 b 375 196 478 532 435 344 b 326 203 358 201 343 203 b 242 -24 169 203 38 -24 b 460 115 331 -24 407 29 b 547 99 490 104 519 99 b 681 185 606 99 656 124 b 671 208 683 194 679 204 b 647 199 661 211 651 207 b 549 133 629 151 592 133 b 478 147 526 133 501 139 b 429 567 569 321 576 567 b 106 135 264 567 147 276 l 103 135 b 124 215 110 158 118 192 z "},"c":{"ha":417,"x_min":0,"x_max":0,"o":"m 346 426 b 282 567 388 508 349 567 b 65 396 221 567 136 518 b 81 -12 -44 208 -49 42 b 158 -28 103 -22 129 -28 b 438 185 249 -28 364 25 b 429 207 442 193 439 203 b 407 199 421 211 411 208 b 167 0 332 40 228 0 b 135 4 154 0 143 1 b 313 524 -8 56 238 528 b 315 443 336 522 336 482 b 322 419 311 435 314 424 b 346 426 331 415 342 418 z "},"d":{"ha":679,"x_min":0,"x_max":0,"o":"m 339 222 b 415 -17 314 75 338 -6 l 417 -17 b 424 -17 419 -18 421 -18 b 701 185 554 -31 656 75 b 692 208 704 194 700 204 b 668 199 682 211 672 207 b 446 15 628 100 544 15 b 425 17 439 15 432 15 b 738 965 336 40 567 553 b 667 1042 754 1007 708 1042 b 615 1008 644 1042 625 1032 l 446 588 b 117 18 306 240 203 18 b 313 524 -12 18 240 526 b 315 443 336 522 336 482 b 322 419 311 435 314 424 b 346 426 331 415 342 418 b 282 567 388 508 349 567 b 65 396 221 567 136 518 b 88 -18 -40 215 -62 -18 b 328 226 188 -18 249 67 b 358 304 339 250 350 281 l 361 304 b 339 222 353 279 343 247 z "},"e":{"ha":417,"x_min":0,"x_max":0,"o":"m 156 314 b 317 524 211 426 283 525 b 317 442 335 522 344 501 b 156 314 288 381 235 333 z m 183 285 b 347 428 263 310 317 363 b 285 569 386 513 350 569 b 65 396 224 569 138 519 b 96 -17 -43 210 -46 50 b 181 -37 125 -31 154 -37 b 438 185 288 -37 375 60 b 429 207 442 193 439 203 b 407 199 421 211 411 208 b 179 -4 344 61 251 -4 b 140 3 165 -4 153 -1 b 117 229 67 31 78 126 b 113 300 126 251 129 281 l 115 301 b 161 282 126 288 143 282 b 183 285 169 282 176 283 z "},"f":{"ha":324,"x_min":0,"x_max":0,"o":"m 346 185 b 336 208 349 194 344 204 b 313 199 326 211 317 207 b 81 13 269 93 189 -1 b 78 13 79 13 79 13 b 71 -19 61 13 56 -12 b -64 -458 264 -104 118 -494 b 249 490 -154 -440 78 78 b 182 565 265 532 222 565 b 124 528 158 565 135 554 b -75 -490 -151 -111 -242 -458 b -44 -493 -65 -492 -56 -493 b 122 -17 142 -493 269 -143 b 346 185 226 0 307 90 z "},"g":{"ha":682,"x_min":0,"x_max":0,"o":"m 390 446 b 97 18 311 215 224 18 b 360 531 -4 50 249 531 b 368 529 363 531 365 531 b 390 446 388 525 399 482 z m 213 -157 b -8 -460 151 -328 90 -460 b 149 -151 -135 -460 -126 -151 b 213 -157 168 -151 190 -153 z m 417 519 b 317 571 396 560 358 571 b 65 396 243 571 143 529 b 97 -18 -40 215 -62 -18 b 315 169 188 -18 258 60 b 224 -124 288 72 256 -31 b 143 -117 194 -118 168 -117 b 25 -494 -178 -117 -199 -494 b 332 -179 160 -494 254 -358 b 703 185 519 -189 626 4 b 694 207 707 193 703 204 b 672 199 686 211 675 207 b 347 -146 593 17 499 -144 b 546 494 433 67 497 328 b 478 561 558 532 518 561 b 417 521 453 561 428 550 z "},"h":{"ha":707,"x_min":0,"x_max":0,"o":"m 124 215 b 390 974 181 469 299 767 b 324 1039 407 1013 365 1039 b 260 1003 297 1039 271 1029 b -24 -11 144 760 -100 60 b 36 -35 -14 -28 11 -35 b 93 -6 65 -35 92 -25 b 410 532 175 265 306 532 b 461 -42 476 532 133 -42 b 728 185 551 -42 653 21 b 719 207 732 193 729 203 b 697 199 711 211 701 208 b 469 -7 635 64 546 -7 b 425 567 260 -7 679 567 b 106 135 281 567 144 265 l 103 135 b 124 215 110 158 118 192 z "},"i":{"ha":356,"x_min":0,"x_max":0,"o":"m 158 683 b 232 611 158 643 190 611 b 306 683 272 611 306 643 b 232 757 306 724 272 757 b 158 683 190 757 158 724 z m 376 183 b 369 207 381 193 378 203 b 346 200 360 211 350 208 b 115 7 274 54 188 7 b 221 492 18 7 56 199 b 164 568 247 538 206 568 b 97 532 138 568 111 557 b 97 -22 -22 310 -94 -22 b 376 183 206 -22 304 38 z "},"j":{"ha":347,"x_min":0,"x_max":0,"o":"m -125 -157 b -343 -460 -185 -328 -244 -460 b -187 -153 -469 -460 -460 -153 b -125 -157 -168 -153 -147 -154 z m 368 185 b 360 207 372 193 368 204 b 338 199 351 211 340 207 b 6 -146 257 14 161 -149 b 211 494 92 71 156 335 b 147 567 226 536 188 567 b 81 517 119 567 92 551 b -114 -124 33 369 -39 96 b -192 -117 -142 -119 -168 -117 b -310 -494 -511 -117 -533 -494 b -8 -179 -176 -494 -85 -358 b 368 185 183 -193 290 1 z m 125 686 b 199 614 125 646 157 614 b 272 686 239 614 272 646 b 199 760 272 726 239 760 b 125 686 157 760 125 726 z "},"k":{"ha":568,"x_min":0,"x_max":0,"o":"m 231 347 b 419 532 286 453 365 532 b 231 347 460 532 354 328 z m 124 215 b 390 974 181 469 299 767 b 324 1039 407 1013 365 1039 b 260 1003 297 1039 271 1029 b -24 -11 144 760 -100 60 b 36 -35 -14 -28 11 -35 b 93 -6 65 -35 92 -25 b 178 235 118 78 147 161 b 346 -22 179 128 215 -22 b 590 185 433 -22 529 42 b 581 208 593 193 589 204 b 557 199 572 211 561 207 b 346 13 500 64 418 13 b 308 17 333 13 321 14 b 217 307 236 36 197 186 b 306 285 247 292 276 285 b 429 567 492 285 631 567 b 106 135 263 567 147 276 l 103 135 b 124 215 110 158 118 192 z "},"l":{"ha":332,"x_min":0,"x_max":0,"o":"m 353 185 b 344 207 357 193 353 204 b 322 199 336 211 325 207 b 121 8 261 63 172 -3 b 390 965 -12 36 219 553 b 324 1040 407 1007 364 1040 b 265 1003 300 1040 276 1029 b 86 -19 -11 363 -100 15 b 115 -22 96 -21 106 -22 b 353 185 206 -22 296 57 z "},"m":{"ha":896,"x_min":0,"x_max":0,"o":"m 161 315 b 239 507 188 388 215 450 b 172 574 256 546 214 574 b 108 538 147 574 121 563 b -33 -1 40 400 -49 147 b 35 -43 -31 -29 3 -43 b 97 7 69 -43 103 -26 b 99 31 99 15 99 22 b 374 532 115 149 286 532 b 282 158 450 532 294 189 b 344 106 269 126 307 106 b 413 142 374 106 401 117 b 451 258 428 181 442 221 b 665 532 506 401 572 532 b 681 -12 749 532 428 -12 b 917 185 804 -12 888 117 b 908 207 921 193 917 204 b 886 199 900 211 889 207 b 693 14 833 82 753 14 b 665 567 525 14 967 567 b 476 403 585 567 524 494 b 374 567 481 500 450 567 b 135 236 281 567 167 326 l 132 238 b 161 315 140 261 153 292 z "},"n":{"ha":596,"x_min":0,"x_max":0,"o":"m 400 567 b 135 229 306 567 201 383 b 240 507 165 338 207 429 b 167 567 254 542 208 567 b 108 538 142 567 118 558 b -33 -1 40 400 -49 147 b 35 -43 -31 -29 3 -43 b 97 7 69 -43 103 -26 b 99 28 99 14 99 21 b 400 532 108 106 285 532 b 400 -19 481 532 142 -19 b 617 185 493 -19 558 51 b 608 207 621 193 617 204 b 586 199 600 211 589 207 b 415 14 528 65 468 14 b 400 567 244 14 703 567 z "},"o":{"ha":483,"x_min":0,"x_max":0,"o":"m 260 97 b 279 393 142 169 219 386 l 282 393 b 260 97 349 393 339 207 z m 504 185 b 496 207 508 193 504 204 b 474 199 488 211 476 207 b 326 76 432 103 372 76 b 293 82 314 76 303 79 b 276 426 385 217 388 438 b 238 69 182 418 100 161 b 124 18 207 39 169 18 b 228 453 38 18 100 372 b 199 569 271 482 243 569 b 179 564 192 569 186 567 b 124 -18 -1 469 -117 -18 b 269 53 183 -18 232 10 b 278 50 272 51 275 51 b 326 42 292 46 308 42 b 504 185 385 42 458 75 z "},"p":{"ha":689,"x_min":0,"x_max":0,"o":"m 233 22 b 389 176 176 51 299 189 b 249 18 346 93 290 18 b 233 22 243 18 238 19 z m -161 -471 b -100 -494 -151 -487 -125 -494 b -47 -457 -68 -494 -37 -482 b 26 -100 -40 -351 -12 -228 b 28 -96 26 -99 28 -97 b 451 518 135 203 357 518 b 406 210 510 518 469 347 b 378 213 396 213 388 213 b 233 -17 250 213 107 28 b 282 -25 250 -22 265 -25 b 482 110 357 -25 428 32 b 582 67 518 82 551 67 b 710 185 632 67 675 106 b 701 207 714 193 711 203 b 679 199 693 211 683 208 b 581 103 650 135 618 103 b 501 139 557 103 531 115 b 525 567 600 299 649 567 b 136 215 383 567 260 399 b 256 501 176 318 218 417 b 189 567 272 540 231 567 b 125 531 163 567 136 557 b -161 -471 13 293 -239 -400 z "},"q":{"ha":622,"x_min":0,"x_max":0,"o":"m 343 426 b 279 567 385 508 346 567 b 63 396 218 567 133 518 b 94 -18 -43 215 -65 -18 b 239 68 151 -18 197 15 b 224 -490 118 -276 104 -464 b 232 -493 225 -492 231 -493 b 421 -17 436 -528 576 -150 b 644 185 525 0 606 90 b 635 208 647 194 643 204 b 611 199 625 211 615 207 b 367 17 568 93 475 3 b 364 17 365 17 365 17 b 357 -15 347 17 342 -8 b 257 -460 543 -97 429 -460 b 236 -458 250 -460 243 -460 l 235 -458 b 547 490 146 -435 376 78 b 481 565 564 532 521 565 b 422 528 457 565 433 554 b 421 524 422 526 421 525 b 94 18 321 307 235 18 b 310 524 -17 18 236 526 b 313 443 333 522 333 482 b 319 419 308 435 311 424 b 343 426 328 415 339 418 z "},"r":{"ha":644,"x_min":0,"x_max":0,"o":"m 103 538 b 40 657 43 549 26 596 b 96 699 47 685 63 708 b 103 538 121 692 122 629 z m 21 185 b 136 503 40 231 104 374 b 351 528 219 503 294 529 b 408 -25 453 524 83 -25 b 665 185 539 -25 611 61 b 657 207 669 193 665 204 b 635 199 649 211 638 207 b 442 14 599 118 532 14 b 456 539 265 14 569 418 b 383 564 438 558 413 564 b 144 536 322 564 239 538 b 108 740 165 636 165 722 b 79 744 99 743 89 744 b -12 669 40 744 0 722 b 96 506 -31 593 8 519 b -10 199 75 417 39 307 b -1 176 -14 190 -10 179 b 21 185 7 172 17 176 z "},"s":{"ha":522,"x_min":0,"x_max":0,"o":"m 92 26 b 57 114 26 26 8 68 b 163 154 89 144 125 154 b 290 131 204 154 247 143 b 92 26 263 67 157 26 z m 364 389 b 271 564 429 454 397 550 l 268 564 b 54 425 163 575 74 507 l 54 421 b 51 403 53 415 53 408 b -8 201 40 322 17 258 b 0 179 -12 193 -8 182 b 22 188 8 175 19 179 b 71 322 40 228 58 272 b 94 290 76 311 85 301 b 285 168 143 236 253 208 b 163 189 246 179 204 189 b 32 139 118 189 72 176 b 88 -7 -36 75 -10 -7 b 278 61 156 -7 226 15 b 335 118 290 68 325 104 b 424 103 365 110 396 103 b 543 185 472 103 514 122 b 535 207 547 193 544 203 b 513 199 526 211 517 208 b 421 139 490 153 458 139 b 354 149 400 139 378 143 b 231 332 378 204 354 265 b 265 531 99 403 132 538 b 339 414 358 521 388 461 b 339 389 332 407 332 396 b 364 389 346 382 357 382 z "},"t":{"ha":332,"x_min":0,"x_max":0,"o":"m 354 185 b 344 208 357 194 353 204 b 321 199 335 211 325 207 b 107 17 278 93 196 17 b 329 826 -25 17 174 457 b 538 903 424 821 507 833 b 528 926 540 913 536 922 b 504 917 518 929 508 925 b 403 868 489 881 451 868 b 349 872 386 868 368 869 b 390 965 367 917 372 924 b 324 1040 407 1007 364 1040 b 265 1003 300 1040 276 1029 b 217 896 244 953 236 942 b 38 919 156 908 92 919 b -99 871 -19 919 -68 907 b -94 817 -112 856 -111 831 b -68 807 -87 810 -78 807 b -39 821 -57 807 -46 811 b 60 850 -21 843 15 850 b 193 839 99 850 144 844 b 93 -24 -18 321 -104 -24 b 354 185 214 -24 308 75 z "},"u":{"ha":708,"x_min":0,"x_max":0,"o":"m 729 185 b 721 207 733 193 729 204 b 699 199 713 211 701 207 b 481 15 646 81 576 15 b 454 17 472 15 463 15 b 579 492 389 35 464 271 b 515 565 601 532 560 565 b 457 535 493 565 471 557 b 454 531 456 533 456 532 b 451 525 453 529 453 526 b 394 399 431 483 411 442 b 100 17 310 222 185 17 b 225 492 32 17 110 271 b 161 565 247 533 204 565 b 101 532 138 565 114 556 b 90 -17 -15 311 -83 -17 b 347 231 174 -17 272 101 b 444 -17 325 101 346 -4 b 729 185 574 -33 671 50 z "},"v":{"ha":563,"x_min":0,"x_max":0,"o":"m 299 172 b 293 194 296 179 294 188 b 453 514 272 363 393 540 b 299 172 503 492 408 310 z m 583 185 b 575 207 588 193 583 204 b 553 199 567 211 556 207 b 417 92 518 121 465 92 b 317 140 378 92 340 111 b 467 544 446 292 553 506 b 440 550 458 549 450 550 b 260 189 349 550 239 363 b 274 143 261 172 267 157 b 100 17 211 71 146 17 b 225 492 35 35 110 271 b 161 565 247 533 204 565 b 101 532 138 565 114 556 b 90 -17 -15 311 -81 8 l 92 -17 b 100 -17 94 -18 97 -18 b 293 114 150 -19 224 36 b 417 56 324 78 369 56 b 583 185 478 56 543 92 z "},"w":{"ha":914,"x_min":0,"x_max":0,"o":"m 656 146 b 638 190 646 160 640 174 b 786 518 614 354 721 518 b 803 514 792 518 797 517 b 656 146 853 486 771 285 z m 935 185 b 926 207 939 193 935 204 b 904 199 918 211 907 207 b 763 96 872 125 815 96 b 681 122 732 96 703 106 b 819 544 810 274 900 500 b 788 553 810 550 799 553 b 604 185 693 553 575 365 b 633 119 608 160 618 139 b 460 17 578 60 515 17 l 451 17 b 501 314 361 42 475 261 b 438 388 522 356 481 388 b 379 357 415 388 393 379 b 376 353 378 356 378 354 b 344 281 365 329 354 306 b 106 17 283 160 188 17 l 99 17 b 224 492 33 35 108 271 b 160 565 246 533 203 565 b 100 532 136 565 113 556 b 89 -17 -19 310 -83 7 l 90 -17 b 97 -17 93 -18 94 -18 b 313 154 175 -24 253 63 b 442 -17 306 60 347 -4 l 443 -17 b 450 -17 446 -18 449 -18 b 657 97 517 -22 590 26 b 764 61 686 75 724 61 b 935 185 828 61 897 97 z "},"x":{"ha":619,"x_min":0,"x_max":0,"o":"m 642 185 b 632 208 644 194 640 204 b 608 199 622 211 613 207 b 393 18 565 93 482 18 b 260 236 340 18 290 108 b 544 547 394 343 544 456 b 526 565 544 557 536 565 b 510 547 517 565 510 557 b 250 275 510 475 378 376 b 226 518 236 349 226 433 b 164 565 226 550 196 565 b 99 519 132 565 100 550 b -11 196 94 432 28 278 b -3 174 -15 188 -12 178 b 19 182 6 169 15 172 b 101 381 40 225 76 306 b 147 188 108 306 125 242 b 17 0 72 122 17 57 b 33 -18 17 -10 24 -18 b 51 0 43 -18 51 -10 b 163 156 51 44 97 99 b 392 -18 221 39 310 -18 b 642 185 503 -17 596 75 z "},"y":{"ha":710,"x_min":0,"x_max":0,"o":"m 240 -157 b 69 -460 179 -328 118 -460 b 176 -151 -131 -460 -101 -151 b 240 -157 196 -151 218 -153 z m 731 185 b 722 207 735 193 731 204 b 700 199 714 211 703 207 b 375 -146 621 17 526 -144 b 574 494 461 67 525 328 b 506 561 585 532 544 561 b 446 524 481 561 457 550 b 443 519 444 522 444 521 b 92 17 375 350 203 13 b 217 492 26 35 101 271 b 153 565 239 533 196 565 b 93 532 129 565 106 556 b 82 -17 -24 311 -89 8 l 83 -17 b 90 -17 86 -18 89 -18 b 385 310 190 -22 306 158 b 251 -124 346 175 299 15 b 171 -117 222 -118 196 -117 b 69 -494 -150 -117 -169 -494 b 360 -179 188 -494 282 -358 b 731 185 547 -189 654 4 z "},"z":{"ha":607,"x_min":0,"x_max":0,"o":"m 46 -460 b 261 -133 -224 -450 -11 -103 b 46 -460 213 -290 107 -453 z m -12 194 b -3 171 -15 185 -11 175 b 21 181 7 168 17 172 b 285 528 69 301 172 493 b 167 188 360 521 342 232 b 158 186 164 188 161 188 b 161 153 139 183 143 153 l 174 153 b 271 -100 296 153 307 33 b 222 -97 254 -97 238 -97 b 57 -494 -83 -97 -258 -494 b 404 -121 232 -494 372 -301 b 629 185 496 -78 567 36 b 619 208 632 194 628 204 b 596 199 610 211 600 207 b 411 -78 539 60 479 -35 b 264 181 421 43 381 150 b 319 568 504 281 457 568 b -12 194 167 568 39 317 z "},"{":{"ha":528,"x_min":0,"x_max":0,"o":"m 526 1014 b 63 483 286 1014 314 483 b 63 449 43 483 43 449 b 217 -181 303 449 -35 -181 b 235 -162 226 -181 235 -172 b 217 -146 235 -153 226 -146 b 136 463 44 -146 288 354 b 526 979 340 546 340 979 b 544 996 536 979 544 986 b 526 1014 544 1006 536 1014 z "},"|":{"ha":640,"x_min":0,"x_max":0,"o":"m 424 1056 l 424 -333 b 440 -351 424 -343 431 -351 b 458 -333 450 -351 458 -343 l 458 1056 b 440 1074 458 1065 450 1074 b 424 1056 431 1074 424 1065 z "},"}":{"ha":528,"x_min":0,"x_max":0,"o":"m -7 -181 b 457 351 233 -181 206 351 l 457 386 b 303 1014 217 386 554 1014 b 286 996 293 1014 286 1006 b 303 979 286 986 293 979 b 383 371 475 979 231 471 b -7 -146 188 304 178 -146 b -25 -162 -17 -146 -25 -153 b -7 -181 -25 -172 -17 -181 z "},"":{"ha":374,"x_min":0,"x_max":0,"o":"m 186 -193 b 468 815 303 56 539 740 b 403 840 454 831 426 840 b 354 799 378 840 356 829 b 54 -168 343 518 172 100 b 92 -228 44 -189 54 -212 b 126 -236 100 -231 113 -236 b 186 -193 146 -236 169 -226 z m 486 983 b 413 1056 486 1024 454 1056 b 339 983 372 1056 339 1024 b 413 910 339 943 372 910 b 486 983 454 910 486 943 z "},"":{"ha":586,"x_min":0,"x_max":0,"o":"m 281 1 b 224 4 257 -3 238 0 b 281 385 132 38 200 242 z m 281 536 b 154 396 238 510 194 464 b 169 -12 44 208 40 42 b 281 -25 199 -25 238 -31 l 281 -333 b 297 -351 281 -343 288 -351 b 315 -333 307 -351 315 -343 l 315 -18 b 526 185 389 3 469 63 b 518 207 531 193 528 203 b 496 199 510 211 500 208 b 315 10 442 83 372 31 l 315 440 b 401 524 349 490 379 524 b 404 443 425 522 425 482 b 411 419 400 435 403 424 b 435 426 419 415 431 418 b 372 567 475 508 439 567 b 315 554 354 567 336 563 l 315 1056 b 297 1074 315 1065 307 1074 b 281 1056 288 1074 281 1065 z "},"":{"ha":728,"x_min":0,"x_max":0,"o":"m 254 640 b 107 1 160 375 75 76 b 79 -12 96 -3 86 -7 b 75 -36 71 -18 69 -28 b 99 -40 81 -44 90 -46 b 382 14 151 -6 269 14 b 640 -42 493 14 600 -4 b 664 -40 647 -49 657 -49 b 663 -17 671 -33 671 -24 b 406 50 610 32 510 50 b 232 35 346 50 285 44 b 393 640 249 210 317 433 l 582 640 b 600 657 592 640 600 647 b 582 675 600 667 592 675 l 407 675 b 529 974 447 783 490 886 b 463 1039 546 1013 504 1039 b 399 1003 436 1039 410 1029 b 267 675 363 926 314 806 l 147 675 b 131 657 138 675 131 667 b 147 640 131 647 138 640 z "},"":{"ha":794,"x_min":0,"x_max":0,"o":"m 218 521 b 417 719 218 632 306 719 b 613 521 525 719 613 632 b 417 325 613 413 525 325 b 218 521 306 325 218 413 z m 600 332 b 679 521 649 381 679 447 b 600 711 679 596 649 664 l 640 769 b 603 804 649 782 619 804 b 594 800 600 804 596 803 l 557 744 b 417 786 517 771 468 786 b 274 744 364 786 315 771 l 236 800 b 228 804 235 803 231 804 b 190 769 211 804 182 782 l 232 711 b 151 521 182 663 151 596 b 231 333 151 447 182 381 l 190 275 b 228 240 182 263 211 240 b 236 244 231 240 235 242 l 274 300 b 417 258 314 274 364 258 b 558 299 469 258 517 274 l 594 244 b 603 240 596 242 600 240 b 640 275 619 240 649 263 z "},"":{"ha":613,"x_min":0,"x_max":0,"o":"m 431 640 b 263 489 372 553 313 489 b 254 640 231 497 232 557 z m 494 675 b 551 774 515 707 533 742 b 522 675 542 742 532 708 z m 89 958 b 72 940 79 958 72 950 b 89 924 72 931 79 924 l 225 924 b 153 675 189 840 161 751 l 89 675 b 72 657 79 675 72 667 b 89 640 72 647 79 640 l 149 640 b 253 456 143 542 172 468 l 254 456 b 261 456 257 454 260 454 b 474 640 331 451 407 536 l 513 640 b 243 17 426 346 321 17 b 196 365 22 17 25 301 b 207 388 206 369 210 379 b 185 399 203 397 193 401 b 243 -19 -25 321 -14 -19 b 747 969 533 -19 647 665 b 692 1042 763 1018 729 1042 b 615 994 663 1042 629 1026 b 614 992 615 993 614 993 b 453 675 579 907 519 779 l 264 675 b 367 924 288 747 324 835 l 524 924 b 542 940 533 924 542 931 b 524 958 542 950 533 958 l 385 958 b 388 964 385 960 386 963 b 324 1038 410 1006 367 1038 b 264 1004 300 1038 276 1028 b 240 958 256 989 249 974 z "},"":{"ha":578,"x_min":0,"x_max":0,"o":"m 424 1056 l 424 694 b 440 678 424 685 431 678 b 458 694 450 678 458 685 l 458 1056 b 440 1074 458 1065 450 1074 b 424 1056 431 1074 424 1065 z m 458 61 b 440 79 458 71 450 79 b 424 61 431 79 424 71 l 424 -300 b 440 -318 424 -310 431 -318 b 458 -300 450 -318 458 -310 z "},"":{"ha":806,"x_min":0,"x_max":0,"o":"m 325 931 b 399 858 325 890 357 858 b 472 931 439 858 472 890 b 399 1004 472 971 439 1004 b 325 931 357 1004 325 971 z m 565 931 b 639 858 565 890 597 858 b 713 931 679 858 713 890 b 639 1004 713 971 679 1004 b 565 931 597 1004 565 971 z "},"":{"ha":794,"x_min":0,"x_max":0,"o":"m 101 397 b 85 379 92 397 85 389 b 101 363 85 369 92 363 l 719 363 l 719 149 b 736 132 719 139 726 132 b 754 149 746 132 754 139 l 754 379 b 736 397 754 389 746 397 z "},"":{"ha":694,"x_min":0,"x_max":0,"o":"m 225 1101 b 208 1083 215 1101 208 1093 b 225 1067 208 1074 215 1067 l 643 1067 b 661 1083 653 1067 661 1074 b 643 1101 661 1093 653 1101 z "},"":{"ha":594,"x_min":0,"x_max":0,"o":"m 197 814 b 354 658 197 728 268 658 b 510 814 439 658 510 728 b 354 969 510 900 439 969 b 197 814 268 969 197 900 z m 271 814 b 354 896 271 860 308 896 b 436 814 399 896 436 860 b 354 732 436 768 399 732 b 271 814 308 732 271 768 z "},"":{"ha":794,"x_min":0,"x_max":0,"o":"m 644 82 b 663 99 654 82 663 89 b 644 117 663 108 654 117 l 206 117 b 189 99 196 117 189 108 b 206 82 189 89 196 82 z m 442 601 b 424 619 440 611 433 619 b 407 601 414 618 406 611 l 407 397 l 206 397 b 189 379 196 397 189 389 b 206 363 189 369 196 363 l 408 363 l 410 163 b 426 146 410 153 417 144 b 444 163 436 146 444 153 l 443 363 l 644 363 b 663 379 654 363 663 369 b 644 397 663 389 654 397 l 442 397 z "},"":{"ha":390,"x_min":0,"x_max":0,"o":"m 101 842 b 301 1061 196 842 301 967 b 260 1082 301 1075 281 1082 b 218 1061 239 1082 218 1075 b 101 876 218 967 153 876 b 101 842 89 876 89 842 z "},"":{"ha":910,"x_min":0,"x_max":0,"o":"m 396 921 b 104 704 244 921 149 850 b 264 488 60 558 113 488 b 303 488 281 488 293 488 b 214 -10 228 254 175 31 b 279 -35 228 -25 256 -35 b 328 7 304 -35 326 -24 b 628 974 339 288 510 706 b 590 1033 638 994 628 1018 b 556 1042 582 1036 569 1042 b 496 999 536 1042 513 1032 b 461 921 485 976 474 950 z m 717 999 b 435 -10 600 750 364 65 b 500 -35 449 -25 476 -35 b 549 7 525 -35 547 -24 b 849 974 560 288 731 706 b 811 1033 858 994 849 1018 b 776 1042 803 1036 790 1042 b 717 999 757 1042 733 1032 z "},"":{"ha":372,"x_min":0,"x_max":0,"o":"m 158 683 b 232 611 158 643 190 611 b 306 683 272 611 306 643 b 232 757 306 724 272 757 b 158 683 190 757 158 724 z "},"":{"ha":313,"x_min":0,"x_max":0,"o":"m 135 0 l 64 -133 b 129 -119 86 -126 110 -119 b 179 -179 158 -119 179 -133 b 113 -257 179 -235 147 -257 b 36 -197 75 -257 36 -231 b 31 -185 36 -189 33 -185 b 35 -301 14 -185 -21 -251 b 133 -343 65 -331 101 -343 b 265 -182 204 -343 265 -285 b 174 -81 265 -115 224 -81 b 107 -100 153 -81 129 -86 l 169 0 z "},"":{"ha":781,"x_min":0,"x_max":0,"o":"m 600 815 b 57 -42 446 215 -51 344 b 296 -196 86 -144 181 -196 b 672 -42 415 -196 556 -143 b 688 124 740 18 718 124 b 674 117 682 124 678 121 b 217 -93 542 -19 346 -93 b 85 -28 146 -93 96 -71 b 686 790 39 157 561 242 b 646 846 694 829 671 846 b 600 815 625 846 606 835 z m 744 1007 b 671 1079 744 1047 713 1079 b 597 1007 631 1079 597 1047 b 671 933 597 967 631 933 b 744 1007 713 933 744 967 z "}}}
